<?xml version="1.0" encoding="UTF-8" standalone="no"?>
<svg
   xmlns:dc="http://purl.org/dc/elements/1.1/"
   xmlns:cc="http://creativecommons.org/ns#"
   xmlns:rdf="http://www.w3.org/1999/02/22-rdf-syntax-ns#"
   xmlns:svg="http://www.w3.org/2000/svg"
   xmlns="http://www.w3.org/2000/svg"
   xmlns:sodipodi="http://sodipodi.sourceforge.net/DTD/sodipodi-0.dtd"
   xmlns:inkscape="http://www.inkscape.org/namespaces/inkscape"
   width="100%"
   height="100%"
   viewBox="0 0 1014 871"
   version="1.1"
   xml:space="preserve"
   style="fill-rule:evenodd;clip-rule:evenodd;stroke-linecap:round;stroke-linejoin:round;stroke-miterlimit:1.41421;"
   id="svg2"
   inkscape:version="0.48.4 r9939"
   sodipodi:docname="monique_Overlay.svg"><metadata
     id="metadata295"><rdf:RDF><cc:Work
         rdf:about=""><dc:format>image/svg+xml</dc:format><dc:type
           rdf:resource="http://purl.org/dc/dcmitype/StillImage" /><dc:title></dc:title></cc:Work></rdf:RDF></metadata><defs
     id="defs293" /><sodipodi:namedview
     pagecolor="#ffffff"
     bordercolor="#666666"
     borderopacity="1"
     objecttolerance="10"
     gridtolerance="10"
     guidetolerance="10"
     inkscape:pageopacity="0"
     inkscape:pageshadow="2"
     inkscape:window-width="1920"
     inkscape:window-height="1060"
     id="namedview291"
     showgrid="false"
     inkscape:zoom="1.0838117"
     inkscape:cx="382.46225"
     inkscape:cy="439.06053"
     inkscape:window-x="-3"
     inkscape:window-y="-3"
     inkscape:window-maximized="1"
     inkscape:current-layer="Ebene1" /><g
     id="Ebene1"><g
       transform="matrix(0.977003,0,0,1,0.371054,0)"
       id="g7"><path
         d="M147.069,533.677L118.151,533.677L118.151,73.769L16.135,72.828L16.135,582.326L118.151,582.326L118.151,533.677"
         style="fill:none;stroke-width:2.02px;stroke-dasharray:2.02,10.12,0,0;stroke-dashoffset:202.31;stroke:rgb(129,162,255);"
         id="path9" /></g><path
       d="M19.143,530.252L9.338,530.252L9.338,149.499L19.143,149.499"
       style="fill:none;stroke-width:2px;stroke-linejoin:miter;stroke-miterlimit:3;stroke-dasharray:2,6,2,0;stroke:rgb(156,156,156);"
       id="path11" /><path
       d="M990.418,396.466L1003.36,396.466"
       style="fill:none;stroke-width:2px;stroke:rgb(218,255,129);"
       id="path13" /><path
       d="M990.418,272.509L1003.36,272.509"
       style="fill:none;stroke-width:2px;stroke:rgb(218,255,129);"
       id="path15" /><path
       d="M990.418,149.499L1003.36,149.499L1003.36,467.263L336.962,467.263L336.962,530.252L955.529,530.252"
       style="fill:none;stroke-width:2px;stroke:rgb(218,255,129);"
       id="path17" /><path
       d="M910.457,108.82L910.457,95.601"
       style="fill:none;stroke-width:2px;stroke-dasharray:2,6,0,0;stroke:rgb(255,195,129);"
       id="path19" /><path
       d="M868.794,108.82L868.794,95.601"
       style="fill:none;stroke-width:2px;stroke-dasharray:2,6,0,0;stroke:rgb(255,195,129);"
       id="path21" /><path
       d="M806.56,108.82L806.56,95.601"
       style="fill:none;stroke-width:2px;stroke-dasharray:2,6,0,0;stroke:rgb(255,195,129);"
       id="path23" /><path
       d="M767.492,108.82L767.492,95.601"
       style="fill:none;stroke-width:2px;stroke-dasharray:2,6,0,0;stroke:rgb(255,195,129);"
       id="path25" /><path
       d="M585.23,132.055L585.23,95.601L972.973,95.601L972.973,108.82"
       style="fill:none;stroke-width:2px;stroke-dasharray:2,6,0,0;stroke:rgb(255,195,129);"
       id="path27" /><path
       d="M603.477,149.605L626.99,149.605"
       style="fill:none;stroke-width:2px;stroke:rgb(242,129,255);"
       id="path29" /><path
       d="M291.766,120.177L291.766,95.601L549.639,95.601L549.639,149.605L570.351,149.605"
       style="fill:none;stroke-width:2px;stroke:rgb(0,181,255);"
       id="path31" /><path
       d="M233.595,307.554L233.595,382.839"
       style="fill:none;stroke-width:2px;stroke:rgb(156,156,156);"
       id="path33" /><g
       transform="matrix(1,0,0,1,-0.120559,10.9193)"
       id="g35"><circle
         cx="124.689"
         cy="136.292"
         r="5.364"
         style="fill:rgb(213,213,213);stroke-width:2px;stroke:rgb(156,156,156);"
         id="circle37" /></g><g
       transform="matrix(1,0,0,1,-41.3577,95.029)"
       id="g39"><circle
         cx="124.689"
         cy="136.292"
         r="5.364"
         style="fill:rgb(125,125,125);stroke-width:2px;stroke:rgb(156,156,156);"
         id="circle41" /></g><g
       transform="matrix(1,0,0,1,-41.3577,136.54)"
       id="g43"><circle
         cx="124.689"
         cy="136.292"
         r="5.364"
         style="fill:rgb(125,125,125);stroke-width:2px;stroke:rgb(156,156,156);"
         id="circle45" /></g><g
       transform="matrix(1,0,0,1,-0.276781,135.437)"
       id="g47"><circle
         cx="124.689"
         cy="136.292"
         r="5.364"
         style="fill:rgb(213,213,213);stroke-width:2px;stroke:rgb(156,156,156);"
         id="circle49" /></g><g
       transform="matrix(1,0,0,1,-17.2007,180.262)"
       id="g51"><circle
         cx="124.689"
         cy="136.292"
         r="5.364"
         style="fill:rgb(156,156,156);stroke-width:2px;stroke:rgb(156,156,156);"
         id="circle53" /></g><g
       transform="matrix(1,0,0,1,108.906,180.262)"
       id="g55"><circle
         cx="124.689"
         cy="136.292"
         r="5.364"
         style="fill:rgb(156,156,156);stroke-width:2px;stroke:rgb(156,156,156);"
         id="circle57" /></g><g
       transform="matrix(1,0,0,1,878.667,136.059)"
       id="g59"><circle
         cx="124.689"
         cy="136.292"
         r="5.364"
         style="fill:rgb(218,255,129);stroke-width:2px;stroke:rgb(218,255,129);"
         id="circle61" /></g><g
       transform="matrix(1,0,0,1,878.667,260.173)"
       id="g63"><circle
         cx="124.689"
         cy="136.292"
         r="5.364"
         style="fill:rgb(218,255,129);stroke-width:2px;stroke:rgb(218,255,129);"
         id="circle65" /></g><g
       transform="matrix(1,0,0,1,0,9)"
       id="g67"><path
         d="M110.628,307.554L233.595,307.554L233.595,283.074"
         style="fill:none;stroke-width:2px;stroke:rgb(156,156,156);"
         id="path69" /></g><g
       transform="matrix(1.06613,0,0,1,-5.80207,0)"
       id="g71"><path
         d="M87.74,231.315L187.902,231.315L187.902,263.119"
         style="fill:none;stroke-width:1.93px;stroke:rgb(125,125,125);"
         id="path73" /></g><g
       transform="matrix(1,0,0,0.884908,0,45.6297)"
       id="g75"><path
         d="M64.538,396.463L107.279,396.463L107.279,59.377L242.034,59.377L242.034,96.393"
         style="fill:none;stroke-width:2.12px;stroke:rgb(156,156,156);"
         id="path77" /></g><g
       transform="matrix(-0.707107,0.707107,-0.707107,-0.707107,178.71,223.188)"
       id="g79"><path
         d="M44.424,126.442C31.888,126.442 21.725,136.605 21.725,149.142C21.725,161.67 31.896,171.841 44.424,171.841C56.961,171.841 67.124,161.678 67.124,149.142L61.39,149.142C61.39,158.511 53.794,166.107 44.424,166.107C35.061,166.107 27.459,158.505 27.459,149.142C27.459,139.772 35.055,132.176 44.424,132.176L44.424,126.442Z"
         style="fill:rgb(213,213,213);"
         id="path81" /></g><g
       transform="matrix(-0.707107,0.707107,-0.707107,-0.707107,178.71,346.032)"
       id="g83"><path
         d="M44.424,126.442C31.888,126.442 21.725,136.605 21.725,149.142C21.725,161.67 31.896,171.841 44.424,171.841C56.961,171.841 67.124,161.678 67.124,149.142L61.39,149.142C61.39,158.511 53.794,166.107 44.424,166.107C35.061,166.107 27.459,158.505 27.459,149.142C27.459,139.772 35.055,132.176 44.424,132.176L44.424,126.442Z"
         style="fill:rgb(125,125,125);"
         id="path85" /></g><g
       transform="matrix(1,0,0,0.81454,0,50.711)"
       id="g87"><path
         d="M64.538,273.433L83.393,273.433L83.393,80.949L202.225,80.949L202.225,98.482"
         style="fill:none;stroke-width:2.19px;stroke:rgb(125,125,125);"
         id="path89" /></g><g
       transform="matrix(-0.707107,0.707107,-0.707107,-0.707107,178.71,469.548)"
       id="g91"><path
         d="M44.424,126.442C31.888,126.442 21.725,136.605 21.725,149.142C21.725,161.67 31.896,171.841 44.424,171.841C56.961,171.841 67.124,161.678 67.124,149.142L61.39,149.142C61.39,158.511 53.794,166.107 44.424,166.107C35.061,166.107 27.459,158.505 27.459,149.142C27.459,139.772 35.055,132.176 44.424,132.176L44.424,126.442Z"
         style="fill:rgb(156,156,156);"
         id="path93" /></g><g
       transform="matrix(-0.707107,0.707107,-0.707107,-0.707107,178.71,605.62)"
       id="g95"><path
         d="M44.424,126.442C31.888,126.442 21.725,136.605 21.725,149.142C21.725,161.67 31.896,171.841 44.424,171.841C56.961,171.841 67.124,161.678 67.124,149.142L61.39,149.142C61.39,158.511 53.794,166.107 44.424,166.107C35.061,166.107 27.459,158.505 27.459,149.142C27.459,139.772 35.055,132.176 44.424,132.176L44.424,126.442Z"
         style="fill:rgb(156,156,156);"
         id="path97" /></g><g
       transform="matrix(-0.408361,0.651,-0.651,-0.408361,274.751,180.356)"
       id="g99"><path
         d="M55.081,129.099C51.8,127.354 48.14,126.442 44.424,126.442C31.896,126.442 21.725,136.613 21.725,149.142C21.725,161.67 31.896,171.841 44.424,171.841C56.961,171.841 67.124,161.678 67.124,149.142L59.76,149.142C59.76,157.612 52.894,164.478 44.424,164.478C35.96,164.478 29.088,157.606 29.088,149.142C29.088,140.677 35.96,133.805 44.424,133.805C46.935,133.805 49.407,134.422 51.624,135.601L55.081,129.099Z"
         style="fill:rgb(156,156,156);"
         id="path101" /></g><g
       transform="matrix(-0.408361,0.651,-0.651,-0.408361,274.751,180.356)"
       id="g103"><path
         d="M55.081,129.099C51.8,127.354 48.14,126.442 44.424,126.442C31.896,126.442 21.725,136.613 21.725,149.142C21.725,161.67 31.896,171.841 44.424,171.841C56.961,171.841 67.124,161.678 67.124,149.142L59.76,149.142C59.76,157.612 52.894,164.478 44.424,164.478C35.96,164.478 29.088,157.606 29.088,149.142C29.088,140.677 35.96,133.805 44.424,133.805C46.935,133.805 49.407,134.422 51.624,135.601L55.081,129.099Z"
         style="fill:rgb(213,213,213);"
         id="path105" /></g><g
       transform="matrix(0.768479,-1.93734e-14,1.93734e-14,0.768479,125.38,158.278)"
       id="g107"><path
         d="M40.482,126.787C29.634,128.7 21.725,138.126 21.725,149.142C21.725,159.859 29.221,169.117 39.705,171.345L41.236,164.143C34.153,162.637 29.088,156.383 29.088,149.142C29.088,141.699 34.432,135.331 41.761,134.038L40.482,126.787Z"
         style="fill:rgb(213,213,213);"
         id="path109" /></g><g
       transform="matrix(-0.768479,1.94675e-14,-1.94675e-14,-0.768479,195.641,387.386)"
       id="g111"><path
         d="M40.482,126.787C29.634,128.7 21.725,138.126 21.725,149.142C21.725,159.859 29.221,169.117 39.705,171.345L41.236,164.143C34.153,162.637 29.088,156.383 29.088,149.142C29.088,141.699 34.432,135.331 41.761,134.038L40.482,126.787Z"
         style="fill:rgb(142,255,129);"
         id="path113" /></g><g
       transform="matrix(-0.768479,1.94675e-14,-1.94675e-14,-0.768479,195.641,508.686)"
       id="g115"><path
         d="M40.482,126.787C29.634,128.7 21.725,138.126 21.725,149.142C21.725,159.859 29.221,169.117 39.705,171.345L41.236,164.143C34.153,162.637 29.088,156.383 29.088,149.142C29.088,141.699 34.432,135.331 41.761,134.038L40.482,126.787Z"
         style="fill:rgb(142,255,129);"
         id="path117" /></g><g
       transform="matrix(-0.768479,1.94675e-14,-1.94675e-14,-0.768479,236.65,387.988)"
       id="g119"><path
         d="M40.482,126.787C29.634,128.7 21.725,138.126 21.725,149.142C21.725,159.859 29.221,169.117 39.705,171.345L41.236,164.143C34.153,162.637 29.088,156.383 29.088,149.142C29.088,141.699 34.432,135.331 41.761,134.038L40.482,126.787Z"
         style="fill:rgb(142,255,129);"
         id="path121" /></g><g
       transform="matrix(-0.768479,1.94675e-14,-1.94675e-14,-0.768479,236.65,509.287)"
       id="g123"><path
         d="M40.482,126.787C29.634,128.7 21.725,138.126 21.725,149.142C21.725,159.859 29.221,169.117 39.705,171.345L41.236,164.143C34.153,162.637 29.088,156.383 29.088,149.142C29.088,141.699 34.432,135.331 41.761,134.038L40.482,126.787Z"
         style="fill:rgb(142,255,129);"
         id="path125" /></g><g
       transform="matrix(-0.768479,1.94675e-14,-1.94675e-14,-0.768479,277.34,387.386)"
       id="g127"><path
         d="M40.482,126.787C29.634,128.7 21.725,138.126 21.725,149.142C21.725,159.859 29.221,169.117 39.705,171.345L41.236,164.143C34.153,162.637 29.088,156.383 29.088,149.142C29.088,141.699 34.432,135.331 41.761,134.038L40.482,126.787Z"
         style="fill:rgb(142,255,129);"
         id="path129" /></g><g
       transform="matrix(-0.768479,1.94675e-14,-1.94675e-14,-0.768479,620.172,264.159)"
       id="g131"><path
         d="M40.482,126.787C29.634,128.7 21.725,138.126 21.725,149.142C21.725,159.859 29.221,169.117 39.705,171.345L41.236,164.143C34.153,162.637 29.088,156.383 29.088,149.142C29.088,141.699 34.432,135.331 41.761,134.038L40.482,126.787Z"
         style="fill:rgb(242,129,255);"
         id="path133" /></g><g
       transform="matrix(-0.768479,1.94675e-14,-1.94675e-14,-0.768479,1007.11,264.111)"
       id="g135"><path
         d="M44.424,126.442C56.952,126.442 67.124,136.613 67.124,149.142C67.124,161.67 56.952,171.841 44.424,171.841C31.896,171.841 21.725,161.67 21.725,149.142C21.725,136.613 31.896,126.442 44.424,126.442ZM44.424,133.805C52.888,133.805 59.76,140.677 59.76,149.142C59.76,157.606 52.888,164.478 44.424,164.478C35.96,164.478 29.088,157.606 29.088,149.142C29.088,140.677 35.96,133.805 44.424,133.805Z"
         style="fill:rgb(218,255,129);"
         id="path137" /></g><path
       d="M857.674,172.688L857.674,209.678L171.247,209.678L171.247,261.405"
       style="fill:none;stroke-width:2px;stroke:rgb(142,255,129);"
       id="path139" /><g
       transform="matrix(1,0,0,1,0,122.211)"
       id="g141"><path
         d="M857.674,174.477L857.674,209.678L171.247,209.678L171.247,261.405"
         style="fill:none;stroke-width:2px;stroke:rgb(142,255,129);"
         id="path143" /></g><g
       transform="matrix(0.957454,0,0,1,47.7099,3)"
       id="g145"><path
         d="M857.674,174.097L857.674,209.678L171.247,209.678L171.247,261.405"
         style="fill:none;stroke-width:2.04px;stroke:rgb(142,255,129);"
         id="path147" /></g><g
       transform="matrix(0.957454,0,0,1,47.7099,125.211)"
       id="g149"><path
         d="M857.674,175.886L857.674,209.678L171.247,209.678L171.247,261.405"
         style="fill:none;stroke-width:2.04px;stroke:rgb(142,255,129);"
         id="path151" /></g><g
       transform="matrix(0.957454,0,0,1.00239,89.1994,5.60523)"
       id="g153"><path
         d="M826.315,175.463L826.315,209.678L171.247,209.678L171.247,258.183"
         style="fill:none;stroke-width:2.04px;stroke:rgb(142,255,129);"
         id="path155" /></g><g
       transform="matrix(0.957454,0,0,1.00239,89.1994,127.816)"
       id="g157"><path
         d="M826.315,177.247L826.315,209.678L171.247,209.678L171.247,258.183"
         style="fill:none;stroke-width:2.04px;stroke:rgb(142,255,129);"
         id="path159" /></g><g
       transform="matrix(-0.768479,1.94675e-14,-1.94675e-14,-0.768479,674.879,264.54)"
       id="g161"><path
         d="M44.424,126.442C56.952,126.442 67.124,136.613 67.124,149.142C67.124,161.67 56.952,171.841 44.424,171.841C31.896,171.841 21.725,161.67 21.725,149.142C21.725,136.613 31.896,126.442 44.424,126.442ZM44.424,133.805C52.888,133.805 59.76,140.677 59.76,149.142C59.76,157.606 52.888,164.478 44.424,164.478C35.96,164.478 29.088,157.606 29.088,149.142C29.088,140.677 35.96,133.805 44.424,133.805Z"
         style="fill:rgb(242,129,255);"
         id="path163" /></g><g
       transform="matrix(-0.768479,1.94675e-14,-1.94675e-14,-0.768479,195.641,648.289)"
       id="g165"><path
         d="M44.424,126.442C56.952,126.442 67.124,136.613 67.124,149.142C67.124,161.67 56.952,171.841 44.424,171.841C31.896,171.841 21.725,161.67 21.725,149.142C21.725,136.613 31.896,126.442 44.424,126.442ZM44.424,133.805C52.888,133.805 59.76,140.677 59.76,149.142C59.76,157.606 52.888,164.478 44.424,164.478C35.96,164.478 29.088,157.606 29.088,149.142C29.088,140.677 35.96,133.805 44.424,133.805Z"
         style="fill:rgb(129,162,255);"
         id="path167" /></g><g
       transform="matrix(-0.768479,1.94675e-14,-1.94675e-14,-0.768479,236.842,648.289)"
       id="g169"><path
         d="M44.424,126.442C56.952,126.442 67.124,136.613 67.124,149.142C67.124,161.67 56.952,171.841 44.424,171.841C31.896,171.841 21.725,161.67 21.725,149.142C21.725,136.613 31.896,126.442 44.424,126.442ZM44.424,133.805C52.888,133.805 59.76,140.677 59.76,149.142C59.76,157.606 52.888,164.478 44.424,164.478C35.96,164.478 29.088,157.606 29.088,149.142C29.088,140.677 35.96,133.805 44.424,133.805Z"
         style="fill:rgb(255,154,17);"
         id="path171" /></g><g
       transform="matrix(-0.768479,1.94675e-14,-1.94675e-14,-0.768479,276.615,648.289)"
       id="g173"><path
         d="M44.424,126.442C56.952,126.442 67.124,136.613 67.124,149.142C67.124,161.67 56.952,171.841 44.424,171.841C31.896,171.841 21.725,161.67 21.725,149.142C21.725,136.613 31.896,126.442 44.424,126.442ZM44.424,133.805C52.888,133.805 59.76,140.677 59.76,149.142C59.76,157.606 52.888,164.478 44.424,164.478C35.96,164.478 29.088,157.606 29.088,149.142C29.088,140.677 35.96,133.805 44.424,133.805Z"
         style="fill:rgb(255,76,130);"
         id="path175" /></g><g
       transform="matrix(-0.768479,1.94675e-14,-1.94675e-14,-0.768479,316.757,648.289)"
       id="g177"><path
         d="M44.424,126.442C56.952,126.442 67.124,136.613 67.124,149.142C67.124,161.67 56.952,171.841 44.424,171.841C31.896,171.841 21.725,161.67 21.725,149.142C21.725,136.613 31.896,126.442 44.424,126.442ZM44.424,133.805C52.888,133.805 59.76,140.677 59.76,149.142C59.76,157.606 52.888,164.478 44.424,164.478C35.96,164.478 29.088,157.606 29.088,149.142C29.088,140.677 35.96,133.805 44.424,133.805Z"
         style="fill:rgb(120,255,26);"
         id="path179" /></g><g
       transform="matrix(-0.768479,1.94675e-14,-1.94675e-14,-0.768479,1007.11,387.121)"
       id="g181"><path
         d="M44.424,126.442C56.952,126.442 67.124,136.613 67.124,149.142C67.124,161.67 56.952,171.841 44.424,171.841C31.896,171.841 21.725,161.67 21.725,149.142C21.725,136.613 31.896,126.442 44.424,126.442ZM44.424,133.805C52.888,133.805 59.76,140.677 59.76,149.142C59.76,157.606 52.888,164.478 44.424,164.478C35.96,164.478 29.088,157.606 29.088,149.142C29.088,140.677 35.96,133.805 44.424,133.805Z"
         style="fill:rgb(218,255,129);"
         id="path183" /></g><g
       transform="matrix(-0.768479,1.94675e-14,-1.94675e-14,-0.768479,1007.11,511.078)"
       id="g185"><path
         d="M44.424,126.442C56.952,126.442 67.124,136.613 67.124,149.142C67.124,161.67 56.952,171.841 44.424,171.841C31.896,171.841 21.725,161.67 21.725,149.142C21.725,136.613 31.896,126.442 44.424,126.442ZM44.424,133.805C52.888,133.805 59.76,140.677 59.76,149.142C59.76,157.606 52.888,164.478 44.424,164.478C35.96,164.478 29.088,157.606 29.088,149.142C29.088,140.677 35.96,133.805 44.424,133.805Z"
         style="fill:rgb(218,255,129);"
         id="path187" /></g><g
       transform="matrix(-0.768479,1.94675e-14,-1.94675e-14,-0.768479,1007.11,644.864)"
       id="g189"><path
         d="M44.424,126.442C56.952,126.442 67.124,136.613 67.124,149.142C67.124,161.67 56.952,171.841 44.424,171.841C31.896,171.841 21.725,161.67 21.725,149.142C21.725,136.613 31.896,126.442 44.424,126.442ZM44.424,133.805C52.888,133.805 59.76,140.677 59.76,149.142C59.76,157.606 52.888,164.478 44.424,164.478C35.96,164.478 29.088,157.606 29.088,149.142C29.088,140.677 35.96,133.805 44.424,133.805Z"
         style="fill:rgb(255,74,74);"
         id="path191" /></g><g
       transform="matrix(-0.768479,1.94675e-14,-1.94675e-14,-0.768479,277.34,508.686)"
       id="g193"><path
         d="M40.482,126.787C29.634,128.7 21.725,138.126 21.725,149.142C21.725,159.859 29.221,169.117 39.705,171.345L41.236,164.143C34.153,162.637 29.088,156.383 29.088,149.142C29.088,141.699 34.432,135.331 41.761,134.038L40.482,126.787Z"
         style="fill:rgb(142,255,129);"
         id="path195" /></g><g
       transform="matrix(0.768479,-1.93734e-14,1.93734e-14,0.768479,125.38,279.999)"
       id="g197"><path
         d="M40.482,126.787C29.634,128.7 21.725,138.126 21.725,149.142C21.725,159.859 29.221,169.117 39.705,171.345L41.236,164.143C34.153,162.637 29.088,156.383 29.088,149.142C29.088,141.699 34.432,135.331 41.761,134.038L40.482,126.787Z"
         style="fill:rgb(213,213,213);"
         id="path199" /></g><g
       transform="matrix(0.768479,-1.93734e-14,1.93734e-14,0.768479,168.132,158.278)"
       id="g201"><path
         d="M40.482,126.787C29.634,128.7 21.725,138.126 21.725,149.142C21.725,159.859 29.221,169.117 39.705,171.345L41.236,164.143C34.153,162.637 29.088,156.383 29.088,149.142C29.088,141.699 34.432,135.331 41.761,134.038L40.482,126.787Z"
         style="fill:rgb(125,125,125);"
         id="path203" /></g><g
       transform="matrix(0.768479,-1.93734e-14,1.93734e-14,0.768479,168.132,279.999)"
       id="g205"><path
         d="M40.482,126.787C29.634,128.7 21.725,138.126 21.725,149.142C21.725,159.859 29.221,169.117 39.705,171.345L41.236,164.143C34.153,162.637 29.088,156.383 29.088,149.142C29.088,141.699 34.432,135.331 41.761,134.038L40.482,126.787Z"
         style="fill:rgb(125,125,125);"
         id="path207" /></g><g
       transform="matrix(0.768479,-1.93734e-14,1.93734e-14,0.768479,208.201,158.278)"
       id="g209"><path
         d="M40.482,126.787C29.634,128.7 21.725,138.126 21.725,149.142C21.725,159.859 29.221,169.117 39.705,171.345L41.236,164.143C34.153,162.637 29.088,156.383 29.088,149.142C29.088,141.699 34.432,135.331 41.761,134.038L40.482,126.787Z"
         style="fill:rgb(156,156,156);"
         id="path211" /></g><g
       transform="matrix(0.768479,-1.93734e-14,1.93734e-14,0.768479,550.725,34.6215)"
       id="g213"><path
         d="M40.482,126.787C29.634,128.7 21.725,138.126 21.725,149.142C21.725,159.859 29.221,169.117 39.705,171.345L41.236,164.143C34.153,162.637 29.088,156.383 29.088,149.142C29.088,141.699 34.432,135.331 41.761,134.038L40.482,126.787Z"
         style="fill:rgb(0,181,255);"
         id="path215" /></g><g
       transform="matrix(0.768479,-1.93734e-14,1.93734e-14,0.768479,208.201,279.999)"
       id="g217"><path
         d="M40.482,126.787C29.634,128.7 21.725,138.126 21.725,149.142C21.725,159.859 29.221,169.117 39.705,171.345L41.236,164.143C34.153,162.637 29.088,156.383 29.088,149.142C29.088,141.699 34.432,135.331 41.761,134.038L40.482,126.787Z"
         style="fill:rgb(156,156,156);"
         id="path219" /></g><g
       transform="matrix(-0.408361,0.651,-0.651,-0.408361,316.457,180.356)"
       id="g221"><path
         d="M55.081,129.099C51.8,127.354 48.14,126.442 44.424,126.442C31.896,126.442 21.725,136.613 21.725,149.142C21.725,161.67 31.896,171.841 44.424,171.841C56.961,171.841 67.124,161.678 67.124,149.142L59.76,149.142C59.76,157.612 52.894,164.478 44.424,164.478C35.96,164.478 29.088,157.606 29.088,149.142C29.088,140.677 35.96,133.805 44.424,133.805C46.935,133.805 49.407,134.422 51.624,135.601L55.081,129.099Z"
         style="fill:rgb(125,125,125);"
         id="path223" /></g><g
       transform="matrix(-0.408361,0.651,-0.651,-0.408361,358.344,180.356)"
       id="g225"><path
         d="M55.081,129.099C51.8,127.354 48.14,126.442 44.424,126.442C31.896,126.442 21.725,136.613 21.725,149.142C21.725,161.67 31.896,171.841 44.424,171.841C56.961,171.841 67.124,161.678 67.124,149.142L59.76,149.142C59.76,157.612 52.894,164.478 44.424,164.478C35.96,164.478 29.088,157.606 29.088,149.142C29.088,140.677 35.96,133.805 44.424,133.805C46.935,133.805 49.407,134.422 51.624,135.601L55.081,129.099Z"
         style="fill:rgb(156,156,156);"
         id="path227" /></g><g
       transform="matrix(1,0,0,0.718604,0,76.4636)"
       id="g229"><path
         d="M124.412,98.452L124.412,271.73L142.075,271.73"
         style="fill:none;stroke-width:2.3px;stroke:rgb(213,213,213);"
         id="path231" /></g><path
       d="M64.538,147.212L142.075,147.212"
       style="fill:none;stroke-width:2px;stroke:rgb(213,213,213);"
       id="path233" /><g
       transform="matrix(1,0,0,0.212974,0,406.289)"
       id="g235"><path
         d="M202.703,516.233L202.703,351.395L202.703,201.519"
         style="fill:none;stroke-width:2.77px;stroke-dasharray:2.77,13.83,0,0;stroke:rgb(255,154,17);"
         id="path237" /></g><g
       transform="matrix(1.20907,0,0,1,-208.034,0)"
       id="g239"><rect
         x="282.873"
         y="81.432"
         width="712.195"
         height="367.775"
         style="fill:none;stroke-width:1.8px;stroke-dasharray:1.8,9.01,0,0;stroke-dashoffset:180.27;stroke:rgb(255,154,17);"
         id="rect241" /></g><g
       transform="matrix(0.93925,0,0,1,0.685048,0)"
       id="g243"><path
         d="M257.043,551.121L257.043,622.599L11.276,622.599L11.276,720.028L995.068,720.028L995.068,622.599L258.107,622.599"
         style="fill:none;stroke-width:2.06px;stroke-dasharray:2.06,10.31,0,0;stroke-dashoffset:206.16;stroke:rgb(255,76,130);"
         id="path245" /></g><g
       transform="matrix(1.09831,0,0,1,-29.4986,0)"
       id="g247"><path
         d="M300.063,533.677L324.661,533.677L324.661,486.063L937.862,486.063L937.862,583.097L324.661,583.097L324.661,533.677"
         style="fill:none;stroke-width:1.9px;stroke-dasharray:1.9,9.52,0,0;stroke-dashoffset:190.42;stroke:rgb(120,255,26);"
         id="path249" /></g><g
       transform="matrix(1.00036,0,0,1,-0.349281,0)"
       id="g251"><path
         d="M159.472,162.829L159.472,172.688L925.979,172.688L925.979,140.379L963.179,140.379"
         style="fill:none;stroke-width:2.67px;stroke-linecap:butt;stroke:rgb(218,255,129);"
         id="path253" /></g><g
       transform="matrix(0.998848,0,0,1,41.4927,4.40955)"
       id="g255"><path
         d="M159.472,158.841L159.472,172.688L892.558,172.688L892.558,145.089L918.624,145.089"
         style="fill:none;stroke-width:2.67px;stroke-linecap:butt;stroke:rgb(218,255,129);"
         id="path257" /></g><g
       transform="matrix(0.951459,0,0,1,91.1468,8.7993)"
       id="g259"><path
         d="M159.472,154.695L159.472,172.688L892.558,172.688L892.558,150.491L916.522,150.491"
         style="fill:none;stroke-width:2.73px;stroke-linecap:butt;stroke:rgb(218,255,129);"
         id="path261" /></g><g
       transform="matrix(0.999275,0,0,1,0.698561,124)"
       id="g263"><path
         d="M159.472,162.829L159.472,172.688L925.979,172.688L925.979,140.379L963.179,140.379"
         style="fill:none;stroke-width:2.67px;stroke-linecap:butt;stroke:rgb(218,255,129);"
         id="path265" /></g><g
       transform="matrix(0.996735,0,0,1,43.4343,128.41)"
       id="g267"><path
         d="M159.472,158.841L159.472,172.688L892.558,172.688L892.558,145.089L918.624,145.089"
         style="fill:none;stroke-width:2.67px;stroke-linecap:butt;stroke:rgb(218,255,129);"
         id="path269" /></g><g
       transform="matrix(0.952013,0,0,1,90.6393,132.799)"
       id="g271"><path
         d="M159.472,154.695L159.472,172.688L892.558,172.688L892.558,150.491L916.522,150.491"
         style="fill:none;stroke-width:2.73px;stroke-linecap:butt;stroke:rgb(218,255,129);"
         id="path273" /></g><g
       transform="matrix(1,0,0,1,1,247)"
       id="g275"><path
         d="M159.472,162.829L159.472,172.688L925.979,172.688L925.979,140.379L963.179,140.379"
         style="fill:none;stroke-width:2.67px;stroke-linecap:butt;stroke:rgb(218,255,129);"
         id="path277" /></g><g
       transform="matrix(0.998225,0,0,1,43.0653,251.41)"
       id="g279"><path
         d="M159.472,158.841L159.472,172.688L892.558,172.688L892.558,145.089L918.624,145.089"
         style="fill:none;stroke-width:2.67px;stroke-linecap:butt;stroke:rgb(218,255,129);"
         id="path281" /></g><g
       transform="matrix(0.953167,0,0,1,90.5808,255.799)"
       id="g283"><path
         d="M159.472,154.695L159.472,172.688L892.558,172.688L892.558,150.491L916.522,150.491"
         style="fill:none;stroke-width:2.73px;stroke-linecap:butt;stroke:rgb(218,255,129);"
         id="path285" /></g><path
       d="M124.412,271.73L124.412,394.553L144.888,394.553"
       style="fill:none;stroke-width:2px;stroke:rgb(213,213,213);"
       id="path287" /><path
       d="M83.051,273.745L83.051,353.95L192.702,353.95L192.702,383.219"
       style="fill:none;stroke-width:2px;stroke:rgb(125,125,125);"
       id="path289" /></g></svg>