<?xml version="1.0" encoding="UTF-8" standalone="no"?>
<!DOCTYPE svg PUBLIC "-//W3C//DTD SVG 20010904//EN"
              "http://www.w3.org/TR/2001/REC-SVG-20010904/DTD/svg10.dtd">

<svg xmlns="http://www.w3.org/2000/svg"
     width="50.0417in" height="4.70833in"
     viewBox="0 0 3603 339">
  <path id="Selection"
        fill="none" stroke="black" stroke-width="1"
        d="M 69.00,0.12
           C 69.00,0.12 124.00,0.12 124.00,0.12
             124.00,0.12 293.00,0.12 293.00,0.12
             321.09,0.04 338.96,21.88 339.00,49.00
             339.00,49.00 339.00,289.00 339.00,289.00
             338.97,310.32 328.76,328.46 308.00,335.91
             302.20,337.99 291.26,338.99 285.00,339.00
             285.00,339.00 53.00,339.00 53.00,339.00
             46.37,338.99 36.16,338.07 30.00,335.77
             11.05,328.69 0.03,311.98 0.00,292.00
             0.00,292.00 0.00,46.00 0.00,46.00
             0.11,22.46 15.36,5.49 38.00,0.12
             38.00,0.12 69.00,0.12 69.00,0.12 Z
           M 476.00,0.12
           C 476.00,0.12 531.00,0.12 531.00,0.12
             531.00,0.12 701.00,0.12 701.00,0.12
             729.09,0.04 746.96,21.88 747.00,49.00
             747.00,49.00 747.00,289.00 747.00,289.00
             746.97,310.32 736.76,328.46 716.00,335.91
             710.20,337.99 699.26,338.99 693.00,339.00
             693.00,339.00 461.00,339.00 461.00,339.00
             454.37,338.99 444.16,338.07 438.00,335.77
             419.05,328.69 408.03,311.98 408.00,292.00
             408.00,292.00 408.00,45.00 408.00,45.00
             408.11,22.66 423.46,5.26 445.00,0.12
             445.00,0.12 476.00,0.12 476.00,0.12 Z
           M 884.00,0.12
           C 884.00,0.12 939.00,0.12 939.00,0.12
             939.00,0.12 1109.00,0.12 1109.00,0.12
             1137.09,0.04 1154.96,21.88 1155.00,49.00
             1155.00,49.00 1155.00,289.00 1155.00,289.00
             1154.97,310.32 1144.76,328.46 1124.00,335.91
             1118.20,337.99 1107.26,338.99 1101.00,339.00
             1101.00,339.00 869.00,339.00 869.00,339.00
             862.37,338.99 852.16,338.07 846.00,335.77
             827.05,328.69 816.03,311.98 816.00,292.00
             816.00,292.00 816.00,45.00 816.00,45.00
             816.11,22.66 831.46,5.26 853.00,0.12
             853.00,0.12 884.00,0.12 884.00,0.12 Z
           M 1292.00,0.12
           C 1292.00,0.12 1347.00,0.12 1347.00,0.12
             1347.00,0.12 1517.00,0.12 1517.00,0.12
             1545.09,0.04 1562.96,21.88 1563.00,49.00
             1563.00,49.00 1563.00,289.00 1563.00,289.00
             1562.97,310.32 1552.76,328.46 1532.00,335.91
             1526.20,337.99 1515.26,338.99 1509.00,339.00
             1509.00,339.00 1277.00,339.00 1277.00,339.00
             1270.37,338.99 1260.16,338.07 1254.00,335.77
             1235.05,328.69 1224.03,311.98 1224.00,292.00
             1224.00,292.00 1224.00,45.00 1224.00,45.00
             1224.11,22.66 1239.46,5.26 1261.00,0.12
             1261.00,0.12 1292.00,0.12 1292.00,0.12 Z
           M 1700.00,0.12
           C 1700.00,0.12 1755.00,0.12 1755.00,0.12
             1755.00,0.12 1925.00,0.12 1925.00,0.12
             1953.09,0.04 1970.96,21.88 1971.00,49.00
             1971.00,49.00 1971.00,289.00 1971.00,289.00
             1970.97,310.32 1960.76,328.46 1940.00,335.91
             1934.20,337.99 1923.26,338.99 1917.00,339.00
             1917.00,339.00 1685.00,339.00 1685.00,339.00
             1678.37,338.99 1668.16,338.07 1662.00,335.77
             1643.05,328.69 1632.03,311.98 1632.00,292.00
             1632.00,292.00 1632.00,45.00 1632.00,45.00
             1632.11,22.66 1647.46,5.26 1669.00,0.12
             1669.00,0.12 1700.00,0.12 1700.00,0.12 Z
           M 2108.00,0.12
           C 2108.00,0.12 2163.00,0.12 2163.00,0.12
             2163.00,0.12 2333.00,0.12 2333.00,0.12
             2361.09,0.04 2378.96,21.88 2379.00,49.00
             2379.00,49.00 2379.00,289.00 2379.00,289.00
             2378.97,310.43 2368.87,328.42 2348.00,335.91
             2342.13,338.01 2332.29,338.99 2326.00,339.00
             2326.00,339.00 2093.00,339.00 2093.00,339.00
             2086.37,338.99 2076.16,338.07 2070.00,335.77
             2051.05,328.69 2040.03,311.98 2040.00,292.00
             2040.00,292.00 2040.00,45.00 2040.00,45.00
             2040.11,22.66 2055.46,5.26 2077.00,0.12
             2077.00,0.12 2108.00,0.12 2108.00,0.12 Z
           M 2516.00,0.12
           C 2516.00,0.12 2571.00,0.12 2571.00,0.12
             2571.00,0.12 2741.00,0.12 2741.00,0.12
             2769.09,0.04 2786.96,21.88 2787.00,49.00
             2787.00,49.00 2787.00,289.00 2787.00,289.00
             2786.97,310.32 2776.76,328.46 2756.00,335.91
             2750.20,337.99 2739.26,338.99 2733.00,339.00
             2733.00,339.00 2501.00,339.00 2501.00,339.00
             2494.37,338.99 2484.16,338.07 2478.00,335.77
             2459.05,328.69 2448.03,311.98 2448.00,292.00
             2448.00,292.00 2448.00,45.00 2448.00,45.00
             2448.11,22.66 2463.46,5.26 2485.00,0.12
             2485.00,0.12 2516.00,0.12 2516.00,0.12 Z
           M 2924.00,0.12
           C 2924.00,0.12 2979.00,0.12 2979.00,0.12
             2979.00,0.12 3149.00,0.12 3149.00,0.12
             3177.09,0.04 3194.96,21.88 3195.00,49.00
             3195.00,49.00 3195.00,289.00 3195.00,289.00
             3194.97,310.32 3184.76,328.46 3164.00,335.91
             3158.20,337.99 3147.26,338.99 3141.00,339.00
             3141.00,339.00 2909.00,339.00 2909.00,339.00
             2902.37,338.99 2892.16,338.07 2886.00,335.77
             2867.05,328.69 2856.03,311.98 2856.00,292.00
             2856.00,292.00 2856.00,45.00 2856.00,45.00
             2856.11,22.66 2871.46,5.26 2893.00,0.12
             2893.00,0.12 2924.00,0.12 2924.00,0.12 Z
           M 3332.00,0.12
           C 3332.00,0.12 3387.00,0.12 3387.00,0.12
             3387.00,0.12 3557.00,0.12 3557.00,0.12
             3585.09,0.04 3602.96,21.88 3603.00,49.00
             3603.00,49.00 3603.00,289.00 3603.00,289.00
             3602.97,310.32 3592.76,328.46 3572.00,335.91
             3566.20,337.99 3555.26,338.99 3549.00,339.00
             3549.00,339.00 3317.00,339.00 3317.00,339.00
             3310.37,338.99 3300.16,338.07 3294.00,335.77
             3275.05,328.69 3264.03,311.98 3264.00,292.00
             3264.00,292.00 3264.00,45.00 3264.00,45.00
             3264.11,22.66 3279.46,5.26 3301.00,0.12
             3301.00,0.12 3332.00,0.12 3332.00,0.12 Z
           M 30.00,51.00
           C 30.00,51.00 30.00,144.00 30.00,144.00
             30.00,144.00 30.00,286.00 30.00,286.00
             30.07,300.76 34.42,307.97 50.00,308.00
             50.00,308.00 248.00,308.00 248.00,308.00
             248.00,308.00 283.00,308.00 283.00,308.00
             288.39,308.00 295.23,308.66 300.00,305.91
             307.37,301.67 307.99,295.61 308.00,288.00
             308.00,288.00 308.00,90.00 308.00,90.00
             308.00,90.00 308.00,55.00 308.00,55.00
             308.00,49.69 308.77,42.60 305.99,38.00
             301.44,30.45 294.90,30.01 287.00,30.08
             287.00,30.08 126.00,30.08 126.00,30.08
             126.00,30.08 73.00,30.08 73.00,30.08
             73.00,30.08 44.00,30.08 44.00,30.08
             32.67,33.15 30.13,40.29 30.00,51.00 Z
           M 438.00,51.00
           C 438.00,51.00 438.00,144.00 438.00,144.00
             438.00,144.00 438.00,286.00 438.00,286.00
             438.07,300.76 442.42,307.97 458.00,308.00
             458.00,308.00 656.00,308.00 656.00,308.00
             656.00,308.00 691.00,308.00 691.00,308.00
             696.39,308.00 703.23,308.66 708.00,305.91
             715.37,301.67 715.99,295.61 716.00,288.00
             716.00,288.00 716.00,90.00 716.00,90.00
             716.00,90.00 716.00,55.00 716.00,55.00
             716.00,49.69 716.77,42.60 713.99,38.00
             709.44,30.45 702.90,30.01 695.00,30.08
             695.00,30.08 534.00,30.08 534.00,30.08
             534.00,30.08 481.00,30.08 481.00,30.08
             481.00,30.08 452.00,30.08 452.00,30.08
             440.67,33.15 438.13,40.29 438.00,51.00 Z
           M 846.00,51.00
           C 846.00,51.00 846.00,144.00 846.00,144.00
             846.00,144.00 846.00,286.00 846.00,286.00
             846.07,300.76 850.42,307.97 866.00,308.00
             866.00,308.00 1064.00,308.00 1064.00,308.00
             1064.00,308.00 1099.00,308.00 1099.00,308.00
             1104.39,308.00 1111.23,308.66 1116.00,305.91
             1123.37,301.67 1123.99,295.61 1124.00,288.00
             1124.00,288.00 1124.00,90.00 1124.00,90.00
             1124.00,90.00 1124.00,55.00 1124.00,55.00
             1124.00,49.69 1124.77,42.60 1121.99,38.00
             1117.44,30.45 1110.90,30.01 1103.00,30.08
             1103.00,30.08 942.00,30.08 942.00,30.08
             942.00,30.08 889.00,30.08 889.00,30.08
             889.00,30.08 860.00,30.08 860.00,30.08
             848.67,33.15 846.13,40.29 846.00,51.00 Z
           M 1254.00,51.00
           C 1254.00,51.00 1254.00,144.00 1254.00,144.00
             1254.00,144.00 1254.00,286.00 1254.00,286.00
             1254.07,300.76 1258.42,307.97 1274.00,308.00
             1274.00,308.00 1472.00,308.00 1472.00,308.00
             1472.00,308.00 1507.00,308.00 1507.00,308.00
             1512.39,308.00 1519.23,308.66 1524.00,305.91
             1531.37,301.67 1531.99,295.61 1532.00,288.00
             1532.00,288.00 1532.00,90.00 1532.00,90.00
             1532.00,90.00 1532.00,55.00 1532.00,55.00
             1532.00,49.69 1532.77,42.60 1529.99,38.00
             1525.44,30.45 1518.90,30.01 1511.00,30.08
             1511.00,30.08 1350.00,30.08 1350.00,30.08
             1350.00,30.08 1297.00,30.08 1297.00,30.08
             1297.00,30.08 1268.00,30.08 1268.00,30.08
             1256.67,33.15 1254.13,40.29 1254.00,51.00 Z
           M 1662.00,51.00
           C 1662.00,51.00 1662.00,144.00 1662.00,144.00
             1662.00,144.00 1662.00,286.00 1662.00,286.00
             1662.07,300.66 1666.58,307.98 1682.00,308.00
             1682.00,308.00 1880.00,308.00 1880.00,308.00
             1880.00,308.00 1915.00,308.00 1915.00,308.00
             1920.39,308.00 1927.23,308.66 1932.00,305.91
             1939.37,301.67 1939.99,295.61 1940.00,288.00
             1940.00,288.00 1940.00,90.00 1940.00,90.00
             1940.00,90.00 1940.00,55.00 1940.00,55.00
             1940.00,49.69 1940.77,42.60 1937.99,38.00
             1933.44,30.45 1926.90,30.01 1919.00,30.08
             1919.00,30.08 1758.00,30.08 1758.00,30.08
             1758.00,30.08 1705.00,30.08 1705.00,30.08
             1705.00,30.08 1676.00,30.08 1676.00,30.08
             1664.67,33.15 1662.13,40.29 1662.00,51.00 Z
           M 2070.00,51.00
           C 2070.00,51.00 2070.00,144.00 2070.00,144.00
             2070.00,144.00 2070.00,286.00 2070.00,286.00
             2070.07,300.66 2074.58,307.98 2090.00,308.00
             2090.00,308.00 2288.00,308.00 2288.00,308.00
             2288.00,308.00 2323.00,308.00 2323.00,308.00
             2328.39,308.00 2335.23,308.66 2340.00,305.91
             2347.37,301.67 2347.99,295.61 2348.00,288.00
             2348.00,288.00 2348.00,90.00 2348.00,90.00
             2348.00,90.00 2348.00,55.00 2348.00,55.00
             2348.00,49.69 2348.77,42.60 2345.99,38.00
             2341.44,30.45 2334.90,30.01 2327.00,30.08
             2327.00,30.08 2166.00,30.08 2166.00,30.08
             2166.00,30.08 2113.00,30.08 2113.00,30.08
             2113.00,30.08 2084.00,30.08 2084.00,30.08
             2072.67,33.15 2070.13,40.29 2070.00,51.00 Z
           M 2478.00,51.00
           C 2478.00,51.00 2478.00,144.00 2478.00,144.00
             2478.00,144.00 2478.00,286.00 2478.00,286.00
             2478.07,300.66 2482.58,307.98 2498.00,308.00
             2498.00,308.00 2696.00,308.00 2696.00,308.00
             2696.00,308.00 2731.00,308.00 2731.00,308.00
             2736.39,308.00 2743.23,308.66 2748.00,305.91
             2755.37,301.67 2755.99,295.61 2756.00,288.00
             2756.00,288.00 2756.00,90.00 2756.00,90.00
             2756.00,90.00 2756.00,55.00 2756.00,55.00
             2756.00,49.69 2756.77,42.60 2753.99,38.00
             2749.44,30.45 2742.90,30.01 2735.00,30.08
             2735.00,30.08 2574.00,30.08 2574.00,30.08
             2574.00,30.08 2521.00,30.08 2521.00,30.08
             2521.00,30.08 2492.00,30.08 2492.00,30.08
             2480.67,33.15 2478.13,40.29 2478.00,51.00 Z
           M 2886.00,51.00
           C 2886.00,51.00 2886.00,144.00 2886.00,144.00
             2886.00,144.00 2886.00,286.00 2886.00,286.00
             2886.07,300.66 2890.58,307.98 2906.00,308.00
             2906.00,308.00 3104.00,308.00 3104.00,308.00
             3104.00,308.00 3139.00,308.00 3139.00,308.00
             3144.39,308.00 3151.23,308.66 3156.00,305.91
             3163.37,301.67 3163.99,295.61 3164.00,288.00
             3164.00,288.00 3164.00,90.00 3164.00,90.00
             3164.00,90.00 3164.00,55.00 3164.00,55.00
             3164.00,49.69 3164.77,42.60 3161.99,38.00
             3157.44,30.45 3150.90,30.01 3143.00,30.08
             3143.00,30.08 2982.00,30.08 2982.00,30.08
             2982.00,30.08 2929.00,30.08 2929.00,30.08
             2929.00,30.08 2900.00,30.08 2900.00,30.08
             2888.67,33.15 2886.13,40.29 2886.00,51.00 Z
           M 3294.00,51.00
           C 3294.00,51.00 3294.00,144.00 3294.00,144.00
             3294.00,144.00 3294.00,286.00 3294.00,286.00
             3294.07,300.66 3298.58,307.98 3314.00,308.00
             3314.00,308.00 3512.00,308.00 3512.00,308.00
             3512.00,308.00 3547.00,308.00 3547.00,308.00
             3552.39,308.00 3559.23,308.66 3564.00,305.91
             3571.37,301.67 3571.99,295.61 3572.00,288.00
             3572.00,288.00 3572.00,90.00 3572.00,90.00
             3572.00,90.00 3572.00,55.00 3572.00,55.00
             3572.00,49.69 3572.77,42.60 3569.99,38.00
             3565.44,30.45 3558.90,30.01 3551.00,30.08
             3551.00,30.08 3390.00,30.08 3390.00,30.08
             3390.00,30.08 3337.00,30.08 3337.00,30.08
             3337.00,30.08 3308.00,30.08 3308.00,30.08
             3296.67,33.15 3294.13,40.29 3294.00,51.00 Z
           M 3100.00,223.00
           C 3100.00,224.91 3100.12,228.09 3099.40,229.82
             3097.89,233.42 3087.67,239.17 3084.00,241.11
             3066.32,250.49 3045.74,253.23 3026.00,253.00
             3015.53,252.87 3004.67,250.07 2995.00,246.20
             2960.54,232.42 2940.57,203.01 2941.00,166.00
             2941.11,157.14 2943.15,148.34 2946.00,140.00
             2957.43,106.56 2993.25,84.41 3028.00,84.00
             3053.52,83.71 3070.91,89.95 3092.00,104.00
             3092.00,104.00 3076.00,128.00 3076.00,128.00
             3076.00,128.00 3060.00,119.44 3060.00,119.44
             3048.79,114.47 3038.13,113.00 3026.00,113.00
             3026.00,113.00 3026.00,224.00 3026.00,224.00
             3037.76,224.00 3049.26,222.25 3060.00,217.22
             3062.88,215.87 3068.38,213.50 3069.98,210.79
             3071.64,207.97 3071.00,194.96 3071.00,191.00
             3071.00,191.00 3050.00,191.00 3050.00,191.00
             3050.00,191.00 3050.00,162.00 3050.00,162.00
             3050.00,162.00 3100.00,162.00 3100.00,162.00
             3100.00,162.00 3100.00,223.00 3100.00,223.00 Z
           M 656.68,134.00
           C 662.31,146.07 664.15,158.83 664.00,172.00
             663.90,179.86 661.99,189.61 659.31,197.00
             655.76,206.78 650.53,215.16 643.71,223.00
             636.94,230.79 626.25,239.09 617.00,243.73
             602.30,251.10 588.24,253.19 572.00,253.00
             511.83,252.29 469.53,189.26 495.32,134.00
             504.03,115.35 522.81,98.41 542.00,91.06
             551.04,87.61 556.66,86.83 566.00,85.42
             602.32,80.99 640.98,100.37 656.68,134.00 Z
           M 1471.68,134.00
           C 1477.31,146.07 1479.15,158.83 1479.00,172.00
             1478.90,179.86 1476.99,189.61 1474.31,197.00
             1470.76,206.78 1465.53,215.16 1458.71,223.00
             1451.94,230.79 1441.25,239.09 1432.00,243.73
             1417.30,251.10 1403.24,253.19 1387.00,253.00
             1326.83,252.29 1284.53,189.26 1310.32,134.00
             1319.03,115.35 1337.81,98.41 1357.00,91.06
             1366.04,87.61 1371.66,86.83 1381.00,85.42
             1417.32,80.99 1455.98,100.37 1471.68,134.00 Z
           M 3420.00,201.80
           C 3394.82,186.69 3365.24,173.14 3366.01,139.00
             3366.29,126.78 3371.50,115.64 3380.01,107.00
             3396.79,89.99 3417.84,84.89 3441.00,85.00
             3461.93,85.10 3474.13,92.40 3492.00,101.00
             3490.03,106.93 3484.99,112.89 3481.29,118.00
             3480.03,119.75 3477.95,122.93 3475.83,123.59
             3473.50,124.31 3470.95,122.48 3469.00,121.43
             3464.98,119.28 3461.41,117.83 3457.00,116.64
             3441.42,112.44 3436.21,113.99 3421.00,116.00
             3425.63,120.99 3434.02,125.21 3440.00,128.80
             3440.00,128.80 3459.00,140.40 3459.00,140.40
             3475.03,150.02 3493.28,160.15 3499.64,179.00
             3502.35,187.01 3502.09,190.77 3502.00,199.00
             3501.76,219.12 3484.62,236.50 3467.00,243.99
             3442.85,254.24 3413.39,255.10 3389.00,244.99
             3379.76,241.16 3368.02,234.02 3362.00,226.00
             3362.00,226.00 3374.92,211.00 3374.92,211.00
             3376.41,209.25 3378.56,206.29 3381.04,206.11
             3383.42,205.93 3386.19,208.42 3388.00,209.77
             3391.85,212.64 3394.71,214.54 3399.00,216.74
             3413.14,224.00 3434.75,227.71 3449.00,219.00
             3449.00,219.00 3420.00,201.80 3420.00,201.80 Z
           M 932.00,89.00
           C 932.00,89.00 939.00,89.51 939.00,89.51
             939.00,89.51 964.00,105.33 964.00,105.33
             964.00,105.33 1003.00,131.67 1003.00,131.67
             1003.00,131.67 1030.00,150.00 1030.00,150.00
             1030.00,150.00 1030.00,89.00 1030.00,89.00
             1030.00,89.00 1060.00,89.00 1060.00,89.00
             1060.00,89.00 1060.00,253.00 1060.00,253.00
             1060.00,253.00 1027.00,231.02 1027.00,231.02
             1027.00,231.02 979.00,198.98 979.00,198.98
             979.00,198.98 940.00,173.00 940.00,173.00
             940.00,173.00 940.00,248.00 940.00,248.00
             940.00,248.00 910.00,248.00 910.00,248.00
             910.00,248.00 910.00,89.00 910.00,89.00
             910.00,89.00 932.00,89.00 932.00,89.00 Z
           M 1793.00,89.00
           C 1818.94,89.00 1838.18,87.47 1860.00,104.67
             1888.74,127.31 1888.03,170.02 1859.00,192.10
             1839.56,206.88 1823.13,207.00 1800.00,207.00
             1800.00,207.00 1800.00,248.00 1800.00,248.00
             1800.00,248.00 1731.00,248.00 1731.00,248.00
             1731.00,248.00 1731.00,89.00 1731.00,89.00
             1731.00,89.00 1793.00,89.00 1793.00,89.00 Z
           M 2214.00,89.00
           C 2214.00,89.00 2214.00,219.00 2214.00,219.00
             2214.00,219.00 2282.00,219.00 2282.00,219.00
             2282.00,219.00 2282.00,248.00 2282.00,248.00
             2282.00,248.00 2145.00,248.00 2145.00,248.00
             2145.00,248.00 2145.00,89.00 2145.00,89.00
             2145.00,89.00 2214.00,89.00 2214.00,89.00 Z
           M 2612.00,89.00
           C 2612.00,89.00 2612.00,224.00 2612.00,224.00
             2632.40,224.00 2653.52,216.49 2661.91,196.00
             2666.29,185.30 2665.00,169.69 2665.00,158.00
             2665.00,158.00 2665.00,89.00 2665.00,89.00
             2665.00,89.00 2695.00,89.00 2695.00,89.00
             2695.00,89.00 2695.00,182.00 2695.00,182.00
             2694.90,245.96 2606.45,274.61 2563.42,231.58
             2540.66,208.81 2542.00,184.52 2542.00,155.00
             2542.00,155.00 2542.00,89.00 2542.00,89.00
             2542.00,89.00 2612.00,89.00 2612.00,89.00 Z
           M 128.00,91.00
           C 137.30,91.02 135.40,90.73 144.58,107.00
             144.58,107.00 171.00,154.00 171.00,154.00
             171.00,154.00 197.14,106.00 197.14,106.00
             205.35,91.20 203.46,91.02 213.00,91.00
             213.00,91.00 268.00,91.00 268.00,91.00
             268.00,91.00 268.00,250.00 268.00,250.00
             268.00,250.00 199.00,250.00 199.00,250.00
             199.00,250.00 199.00,194.00 199.00,194.00
             199.00,194.00 198.00,165.00 198.00,165.00
             198.00,165.00 186.31,187.00 186.31,187.00
             186.31,187.00 165.69,225.00 165.69,225.00
             165.69,225.00 150.00,254.00 150.00,254.00
             150.00,254.00 148.00,254.00 148.00,254.00
             148.00,254.00 121.31,205.00 121.31,205.00
             121.31,205.00 99.00,165.00 99.00,165.00
             99.00,165.00 99.00,250.00 99.00,250.00
             99.00,250.00 69.00,250.00 69.00,250.00
             69.00,250.00 69.00,91.00 69.00,91.00
             69.00,91.00 128.00,91.00 128.00,91.00 Z
           M 617.96,208.83
           C 636.45,191.55 639.22,159.78 625.25,139.00
             617.55,127.55 605.27,119.66 592.00,116.16
             592.00,116.16 574.00,113.00 574.00,113.00
             572.11,119.67 573.00,141.72 573.00,150.00
             573.00,150.00 573.00,225.00 573.00,225.00
             589.81,224.99 605.43,220.54 617.96,208.83 Z
           M 1432.96,208.83
           C 1451.45,191.55 1454.22,159.78 1440.25,139.00
             1432.55,127.55 1420.27,119.66 1407.00,116.16
             1407.00,116.16 1389.00,113.00 1389.00,113.00
             1387.11,119.67 1388.00,141.72 1388.00,150.00
             1388.00,150.00 1388.00,225.00 1388.00,225.00
             1404.81,224.99 1420.43,220.54 1432.96,208.83 Z
           M 1838.00,171.20
           C 1857.57,157.50 1854.43,131.61 1833.00,121.90
             1822.64,117.21 1811.06,118.00 1800.00,118.00
             1800.00,118.00 1800.00,178.00 1800.00,178.00
             1812.80,178.00 1826.92,178.96 1838.00,171.20 Z" />
</svg>
