<?xml version="1.0" standalone="no"?>
<!DOCTYPE svg PUBLIC "-//W3C//DTD SVG 1.1//EN" "http://www.w3.org/Graphics/SVG/1.1/DTD/svg11.dtd">
<svg width="100%" height="100%" viewBox="0 0 1274 840" version="1.1" xmlns="http://www.w3.org/2000/svg" xmlns:xlink="http://www.w3.org/1999/xlink" xml:space="preserve" style="fill-rule:evenodd;clip-rule:evenodd;stroke-linecap:round;stroke-linejoin:round;stroke-miterlimit:1.41421;">
    <g transform="matrix(1,0,0,1.04505,0,-1.83422)">
        <rect x="0" y="0" width="1274" height="818" style="fill:rgb(80,78,84);"/>
    </g>
    <g id="Hintergrund 4" transform="matrix(1,0,0,1,0,11)">
        <g id="Filter 3" transform="matrix(1,0,0,1,0,307)">
            <g transform="matrix(1.90203,0,0,0.868248,357.008,20.2209)">
                <path d="M147.206,43.301C147.206,35.139 144.182,28.513 140.456,28.513L9.751,28.513C6.025,28.513 3,35.139 3,43.301L3,154.758C3,162.92 6.025,169.546 9.751,169.546L140.456,169.546C144.182,169.546 147.206,162.92 147.206,154.758L147.206,43.301Z" style="fill:rgb(160,177,187);"/>
            </g>
            <g transform="matrix(2.98784,0,0,3.91097,223.881,-143.86)">
                <rect x="137.164" y="50.203" width="61.807" height="27.706" style="fill:url(#_Linear1);"/>
            </g>
            <g transform="matrix(0.565096,2.6527e-18,4.15704e-18,0.868588,707.38,20.2112)">
                <path d="M147.206,38.35C147.206,32.921 140.431,28.513 132.085,28.513L18.121,28.513C9.776,28.513 3,32.921 3,38.35L3,159.708C3,165.138 9.776,169.546 18.121,169.546L132.085,169.546C140.431,169.546 147.206,165.138 147.206,159.708L147.206,38.35Z" style="fill:rgb(160,177,187);"/>
            </g>
            <g transform="matrix(2.94669,1.38325e-17,4.15704e-18,0.868588,806.289,20.2343)">
                <path d="M147.206,43.301C147.206,35.139 145.253,28.513 142.847,28.513L7.359,28.513C4.953,28.513 3,35.139 3,43.301L3,154.758C3,162.92 4.953,169.546 7.359,169.546L142.847,169.546C145.253,169.546 147.206,162.92 147.206,154.758L147.206,43.301Z" style="fill:rgb(160,177,187);"/>
            </g>
            <g transform="matrix(0.950585,0,0,0.950585,32.9538,-10.331)">
                <circle cx="672.964" cy="127.812" r="46.557" style="fill:rgb(160,177,187);"/>
            </g>
            <g transform="matrix(1,0,0,1,0,-16.3462)">
                <path d="M672.964,81.255C698.659,81.255 719.521,102.116 719.521,127.812C719.521,153.507 698.659,174.369 672.964,174.369C647.268,174.369 626.407,153.507 626.407,127.812C626.407,102.116 647.268,81.255 672.964,81.255ZM672.964,85.445C696.347,85.445 715.331,104.429 715.331,127.812C715.331,151.195 696.347,170.179 672.964,170.179C649.581,170.179 630.597,151.195 630.597,127.812C630.597,104.429 649.581,85.445 672.964,85.445Z" style="fill:rgb(80,78,84);"/>
            </g>
            <g transform="matrix(1,0,0,1,0,50.51)">
                <rect x="137.164" y="50.203" width="61.807" height="27.706" style="fill:rgb(160,177,187);"/>
            </g>
            <g transform="matrix(1.18699,0,0,1.00551,177.869,-3.05083)">
                <path d="M147.206,43.301C147.206,35.139 141.593,28.513 134.679,28.513L15.528,28.513C8.613,28.513 3,35.139 3,43.301L3,154.758C3,162.92 8.613,169.546 15.528,169.546L134.679,169.546C141.593,169.546 147.206,162.92 147.206,154.758L147.206,43.301Z" style="fill:rgb(160,177,187);"/>
            </g>
            <g transform="matrix(1,0,0,1,190,48.36)">
                <rect x="137.164" y="50.203" width="61.807" height="27.706" style="fill:rgb(160,177,187);"/>
            </g>
            <g transform="matrix(1,0,0,1,630,48.36)">
                <rect x="137.164" y="50.203" width="61.807" height="27.706" style="fill:rgb(160,177,187);"/>
            </g>
            <g transform="matrix(1.01856,0,0,1.30362,-21.6449,-218.927)">
                <path d="M348.271,192.193L1166.12,192.193L1166.12,173.998" style="fill:none;stroke-width:10.26px;stroke:rgb(160,177,187);"/>
            </g>
        </g>
        <g id="Filter 2" transform="matrix(1,0,0,1,0,155)">
            <g transform="matrix(1.90203,0,0,0.868248,357.008,20.2209)">
                <path d="M147.206,43.301C147.206,35.139 144.182,28.513 140.456,28.513L9.751,28.513C6.025,28.513 3,35.139 3,43.301L3,154.758C3,162.92 6.025,169.546 9.751,169.546L140.456,169.546C144.182,169.546 147.206,162.92 147.206,154.758L147.206,43.301Z" style="fill:rgb(160,177,187);"/>
            </g>
            <g transform="matrix(3.00353,0,0,3.90427,221.883,-143.338)">
                <rect x="137.164" y="50.203" width="61.807" height="27.706" style="fill:url(#_Linear2);"/>
            </g>
            <g transform="matrix(0.565096,2.6527e-18,4.15704e-18,0.868588,707.38,20.2112)">
                <path d="M147.206,38.35C147.206,32.921 140.431,28.513 132.085,28.513L18.121,28.513C9.776,28.513 3,32.921 3,38.35L3,159.708C3,165.138 9.776,169.546 18.121,169.546L132.085,169.546C140.431,169.546 147.206,165.138 147.206,159.708L147.206,38.35Z" style="fill:rgb(160,177,187);"/>
            </g>
            <g transform="matrix(2.94669,1.38325e-17,4.15704e-18,0.868588,806.289,20.2343)">
                <path d="M147.206,43.301C147.206,35.139 145.253,28.513 142.847,28.513L7.359,28.513C4.953,28.513 3,35.139 3,43.301L3,154.758C3,162.92 4.953,169.546 7.359,169.546L142.847,169.546C145.253,169.546 147.206,162.92 147.206,154.758L147.206,43.301Z" style="fill:rgb(160,177,187);"/>
            </g>
            <g transform="matrix(0.950585,0,0,0.950585,32.9538,-10.331)">
                <circle cx="672.964" cy="127.812" r="46.557" style="fill:rgb(160,177,187);"/>
            </g>
            <g transform="matrix(1,0,0,1,0,-16.3462)">
                <path d="M672.964,81.255C698.659,81.255 719.521,102.116 719.521,127.812C719.521,153.507 698.659,174.369 672.964,174.369C647.268,174.369 626.407,153.507 626.407,127.812C626.407,102.116 647.268,81.255 672.964,81.255ZM672.964,85.445C696.347,85.445 715.331,104.429 715.331,127.812C715.331,151.195 696.347,170.179 672.964,170.179C649.581,170.179 630.597,151.195 630.597,127.812C630.597,104.429 649.581,85.445 672.964,85.445Z" style="fill:rgb(80,78,84);"/>
            </g>
            <g transform="matrix(1,0,0,1,0,50.51)">
                <rect x="137.164" y="50.203" width="61.807" height="27.706" style="fill:rgb(160,177,187);"/>
            </g>
            <g transform="matrix(1.18699,0,0,1.00551,177.869,-3.05083)">
                <path d="M147.206,43.301C147.206,35.139 141.593,28.513 134.679,28.513L15.528,28.513C8.613,28.513 3,35.139 3,43.301L3,154.758C3,162.92 8.613,169.546 15.528,169.546L134.679,169.546C141.593,169.546 147.206,162.92 147.206,154.758L147.206,43.301Z" style="fill:rgb(160,177,187);"/>
            </g>
            <g transform="matrix(1,0,0,1,190,48.36)">
                <rect x="137.164" y="50.203" width="61.807" height="27.706" style="fill:rgb(160,177,187);"/>
            </g>
            <g transform="matrix(1,0,0,1,630,48.36)">
                <rect x="137.164" y="50.203" width="61.807" height="27.706" style="fill:rgb(160,177,187);"/>
            </g>
            <g transform="matrix(1.01856,0,0,1.30362,-21.6449,-218.927)">
                <path d="M348.271,192.193L1166.12,192.193L1166.12,173.998" style="fill:none;stroke-width:10.26px;stroke:rgb(160,177,187);"/>
            </g>
        </g>
        <g id="Filter 1">
            <g transform="matrix(1.90203,0,0,0.868248,357.008,20.2209)">
                <path d="M147.206,43.301C147.206,35.139 144.182,28.513 140.456,28.513L9.751,28.513C6.025,28.513 3,35.139 3,43.301L3,154.758C3,162.92 6.025,169.546 9.751,169.546L140.456,169.546C144.182,169.546 147.206,162.92 147.206,154.758L147.206,43.301Z" style="fill:rgb(160,177,187);"/>
            </g>
            <g transform="matrix(2.98333,0,0,3.90037,224.761,-143.034)">
                <rect x="137.164" y="50.203" width="61.807" height="27.706" style="fill:url(#_Linear3);"/>
            </g>
            <g transform="matrix(0.565096,2.6527e-18,4.15704e-18,0.868588,707.38,20.2112)">
                <path d="M147.206,38.35C147.206,32.921 140.431,28.513 132.085,28.513L18.121,28.513C9.776,28.513 3,32.921 3,38.35L3,159.708C3,165.138 9.776,169.546 18.121,169.546L132.085,169.546C140.431,169.546 147.206,165.138 147.206,159.708L147.206,38.35Z" style="fill:rgb(160,177,187);"/>
            </g>
            <g transform="matrix(2.94669,1.38325e-17,4.15704e-18,0.868588,806.289,20.2343)">
                <path d="M147.206,43.301C147.206,35.139 145.253,28.513 142.847,28.513L7.359,28.513C4.953,28.513 3,35.139 3,43.301L3,154.758C3,162.92 4.953,169.546 7.359,169.546L142.847,169.546C145.253,169.546 147.206,162.92 147.206,154.758L147.206,43.301Z" style="fill:rgb(160,177,187);"/>
            </g>
            <g transform="matrix(0.950585,0,0,0.950585,32.9538,-10.331)">
                <circle cx="672.964" cy="127.812" r="46.557" style="fill:rgb(160,177,187);"/>
            </g>
            <g transform="matrix(1,0,0,1,0,-16.3462)">
                <path d="M672.964,81.255C698.659,81.255 719.521,102.116 719.521,127.812C719.521,153.507 698.659,174.369 672.964,174.369C647.268,174.369 626.407,153.507 626.407,127.812C626.407,102.116 647.268,81.255 672.964,81.255ZM672.964,85.531C696.299,85.531 715.245,104.476 715.245,127.812C715.245,151.147 696.299,170.093 672.964,170.093C649.628,170.093 630.683,151.147 630.683,127.812C630.683,104.476 649.628,85.531 672.964,85.531Z" style="fill:rgb(80,78,84);"/>
            </g>
            <g transform="matrix(1,0,0,1,0,50.51)">
                <rect x="137.164" y="50.203" width="61.807" height="27.706" style="fill:rgb(160,177,187);"/>
            </g>
            <g transform="matrix(1.18699,0,0,1.00551,177.869,-3.05083)">
                <path d="M147.206,43.301C147.206,35.139 141.593,28.513 134.679,28.513L15.528,28.513C8.613,28.513 3,35.139 3,43.301L3,154.758C3,162.92 8.613,169.546 15.528,169.546L134.679,169.546C141.593,169.546 147.206,162.92 147.206,154.758L147.206,43.301Z" style="fill:rgb(160,177,187);"/>
            </g>
            <g transform="matrix(1,0,0,1,190,48.36)">
                <rect x="137.164" y="50.203" width="61.807" height="27.706" style="fill:rgb(160,177,187);"/>
            </g>
            <g transform="matrix(1,0,0,1,630,48.36)">
                <rect x="137.164" y="50.203" width="61.807" height="27.706" style="fill:rgb(160,177,187);"/>
            </g>
        </g>
        <g id="Oscilators" transform="matrix(1,0,0,1,0,10)">
            <g transform="matrix(0.928646,0,0,4.62307,11.6541,-135.505)">
                <path d="M147.206,31.353C147.206,29.785 140.87,28.513 133.066,28.513L17.141,28.513C9.336,28.513 3,29.785 3,31.353L3,166.706C3,168.273 9.336,169.546 17.141,169.546L133.066,169.546C140.87,169.546 147.206,168.273 147.206,166.706L147.206,31.353Z" style="fill:rgb(116,119,122);"/>
            </g>
            <g transform="matrix(0.825603,0,0,3.38223,26.8227,-100.125)">
                <path d="M147.206,31.964C147.206,30.059 140.87,28.513 133.066,28.513L17.141,28.513C9.336,28.513 3,30.059 3,31.964L3,166.094C3,167.999 9.336,169.546 17.141,169.546L133.066,169.546C140.87,169.546 147.206,167.999 147.206,166.094L147.206,31.964Z" style="fill:rgb(160,177,187);"/>
            </g>
        </g>
        <g transform="matrix(8.52287,0,0,1.00551,-11.1686,650.949)">
            <path d="M147.206,43.301C147.206,35.139 146.425,28.513 145.462,28.513L4.745,28.513C3.782,28.513 3,35.139 3,43.301L3,154.758C3,162.92 3.782,169.546 4.745,169.546L145.462,169.546C146.425,169.546 147.206,162.92 147.206,154.758L147.206,43.301Z" style="fill:rgb(161,170,178);"/>
        </g>
        <g transform="matrix(1.69311e-16,0.597688,-0.610223,1.72862e-16,492.734,622.265)">
            <rect x="57.149" y="655.714" width="41.607" height="34.905" style="fill:url(#_Linear4);"/>
        </g>
        <g id="Master" transform="matrix(1,0,0,1,0,480)">
            <g transform="matrix(1.72269,0,0,1.14106,176.262,-26.0338)">
                <path d="M147.206,43.301C147.206,35.139 142.817,28.513 137.411,28.513L12.796,28.513C7.389,28.513 3,35.139 3,43.301L3,154.758C3,162.92 7.389,169.546 12.796,169.546L137.411,169.546C142.817,169.546 147.206,162.92 147.206,154.758L147.206,43.301Z" style="fill:rgb(133,133,133);"/>
            </g>
            <g transform="matrix(3.33841,0,0,1.00551,430.611,-3.05083)">
                <path d="M147.206,43.301C147.206,35.139 145.211,28.513 142.752,28.513L7.454,28.513C4.996,28.513 3,35.139 3,43.301L3,154.758C3,162.92 4.996,169.546 7.454,169.546L142.752,169.546C145.211,169.546 147.206,162.92 147.206,154.758L147.206,43.301Z" style="fill:rgb(133,133,133);"/>
            </g>
            <g transform="matrix(1.54626,0,0,1.00551,924.899,-3.05083)">
                <path d="M147.206,43.301C147.206,35.139 142.897,28.513 137.59,28.513L12.617,28.513C7.309,28.513 3,35.139 3,43.301L3,154.758C3,162.92 7.309,169.546 12.617,169.546L137.59,169.546C142.897,169.546 147.206,162.92 147.206,154.758L147.206,43.301Z" style="fill:rgb(133,133,133);"/>
            </g>
            <g transform="matrix(0.558599,0,0,1.00551,1160.29,-3.05083)">
                <path d="M147.206,36.913C147.206,32.277 140.431,28.513 132.085,28.513L18.121,28.513C9.776,28.513 3,32.277 3,36.913L3,161.146C3,165.782 9.776,169.546 18.121,169.546L132.085,169.546C140.431,169.546 147.206,165.782 147.206,161.146L147.206,36.913Z" style="fill:rgb(251,78,79);"/>
            </g>
            <g transform="matrix(1,0,0,1,270,28.51)">
                <rect x="137.164" y="50.203" width="61.807" height="27.706" style="fill:rgb(133,133,133);"/>
            </g>
            <g transform="matrix(1,0,0,1,760,28.51)">
                <rect x="137.164" y="50.203" width="61.807" height="27.706" style="fill:rgb(133,133,133);"/>
            </g>
            <g transform="matrix(0.238348,0,0,1,1117.16,28.51)">
                <rect x="137.164" y="50.203" width="61.807" height="27.706" style="fill:url(#_Linear5);"/>
            </g>
        </g>
        <g id="Dreiecke">
            <g transform="matrix(-0.545354,1.75399e-16,-1.75399e-16,-0.545354,235.846,1065.4)">
                <path d="M152.616,686.251L168.068,717.155L137.164,717.155L152.616,686.251Z" style="fill:rgb(80,78,84);"/>
            </g>
            <g transform="matrix(-0.545354,1.75399e-16,-1.75399e-16,-0.545354,1122.85,1065.4)">
                <path d="M152.616,686.251L168.068,717.155L137.164,717.155L152.616,686.251Z" style="fill:rgb(80,78,84);"/>
            </g>
            <g transform="matrix(-0.545354,1.75399e-16,-1.75399e-16,-0.545354,1251.85,1065.4)">
                <path d="M152.616,686.251L168.068,717.155L137.164,717.155L152.616,686.251Z" style="fill:rgb(80,78,84);"/>
            </g>
            <g transform="matrix(0.512479,-1.02065e-16,1.02065e-16,0.512479,74.4035,458.562)">
                <path d="M152.616,686.251L168.068,717.155L137.164,717.155L152.616,686.251Z" style="fill:rgb(80,78,84);"/>
            </g>
            <g transform="matrix(0.512479,-1.02065e-16,1.02065e-16,0.512479,1089.4,458.562)">
                <path d="M152.616,686.251L168.068,717.155L137.164,717.155L152.616,686.251Z" style="fill:rgb(80,78,84);"/>
            </g>
            <g transform="matrix(0.512479,-1.02065e-16,1.02065e-16,0.512479,961.403,458.562)">
                <path d="M152.616,686.251L168.068,717.155L137.164,717.155L152.616,686.251Z" style="fill:rgb(80,78,84);"/>
            </g>
        </g>
        <g transform="matrix(1,0,0,1,0,1)">
            <path d="M1237.96,104.291L1255.7,104.291" style="fill:rgb(160,177,187);stroke-width:12px;stroke:rgb(160,177,187);"/>
        </g>
        <g transform="matrix(1,0,0,1,0,154)">
            <path d="M1237.96,104.291L1255.7,104.291" style="fill:rgb(160,177,187);stroke-width:12px;stroke:rgb(160,177,187);"/>
        </g>
        <g transform="matrix(1,0,0,1,0,308)">
            <path d="M1237.96,104.291L1255.7,104.291" style="fill:rgb(160,177,187);stroke-width:12px;stroke:rgb(160,177,187);"/>
        </g>
        <g transform="matrix(0.819457,0,0,0.980813,226.708,4.51623)">
            <path d="M1255.7,104.291L1255.7,498.075L224.672,498.075L224.672,534.146" style="fill:none;stroke-width:13.28px;stroke:url(#_Linear6);"/>
        </g>
    </g>
    <defs>
        <linearGradient id="_Linear1" x1="0" y1="0" x2="1" y2="0" gradientUnits="userSpaceOnUse" gradientTransform="matrix(61.8069,0,0,27.7059,137.164,64.0555)"><stop offset="0%" style="stop-color:rgb(160,177,187);stop-opacity:1"/><stop offset="17%" style="stop-color:rgb(70,69,65);stop-opacity:1"/><stop offset="39%" style="stop-color:rgb(98,98,98);stop-opacity:0"/><stop offset="80%" style="stop-color:rgb(95,95,95);stop-opacity:0"/><stop offset="96%" style="stop-color:rgb(160,177,187);stop-opacity:1"/><stop offset="100%" style="stop-color:rgb(160,177,187);stop-opacity:1"/></linearGradient>
        <linearGradient id="_Linear2" x1="0" y1="0" x2="1" y2="0" gradientUnits="userSpaceOnUse" gradientTransform="matrix(61.8069,0,0,27.7059,137.164,64.0555)"><stop offset="0%" style="stop-color:rgb(160,177,187);stop-opacity:1"/><stop offset="17%" style="stop-color:rgb(70,69,65);stop-opacity:1"/><stop offset="39%" style="stop-color:rgb(98,98,98);stop-opacity:0"/><stop offset="76%" style="stop-color:rgb(95,95,95);stop-opacity:0"/><stop offset="96%" style="stop-color:rgb(160,177,187);stop-opacity:1"/><stop offset="100%" style="stop-color:rgb(160,177,187);stop-opacity:1"/></linearGradient>
        <linearGradient id="_Linear3" x1="0" y1="0" x2="1" y2="0" gradientUnits="userSpaceOnUse" gradientTransform="matrix(61.8069,0,0,27.7059,137.164,64.0555)"><stop offset="0%" style="stop-color:rgb(160,177,187);stop-opacity:1"/><stop offset="17%" style="stop-color:rgb(70,69,65);stop-opacity:1"/><stop offset="39%" style="stop-color:rgb(98,98,98);stop-opacity:0"/><stop offset="81%" style="stop-color:rgb(95,95,95);stop-opacity:0"/><stop offset="96%" style="stop-color:rgb(160,177,187);stop-opacity:1"/><stop offset="100%" style="stop-color:rgb(160,177,187);stop-opacity:1"/></linearGradient>
        <linearGradient id="_Linear4" x1="0" y1="0" x2="1" y2="0" gradientUnits="userSpaceOnUse" gradientTransform="matrix(41.6071,0,0,34.9053,57.1486,673.166)"><stop offset="0%" style="stop-color:rgb(116,119,122);stop-opacity:1"/><stop offset="100%" style="stop-color:rgb(161,170,178);stop-opacity:1"/></linearGradient>
        <linearGradient id="_Linear5" x1="0" y1="0" x2="1" y2="0" gradientUnits="userSpaceOnUse" gradientTransform="matrix(61.8069,0,0,27.7059,137.164,64.0555)"><stop offset="0%" style="stop-color:rgb(133,133,133);stop-opacity:1"/><stop offset="100%" style="stop-color:rgb(251,78,81);stop-opacity:1"/></linearGradient>
        <linearGradient id="_Linear6" x1="0" y1="0" x2="1" y2="0" gradientUnits="userSpaceOnUse" gradientTransform="matrix(1031.03,0,0,416.018,224.672,312.3)"><stop offset="0%" style="stop-color:rgb(133,133,133);stop-opacity:1"/><stop offset="100%" style="stop-color:rgb(160,177,187);stop-opacity:1"/></linearGradient>
    </defs>
</svg>
