<?xml version="1.0" standalone="no"?>
<!DOCTYPE svg PUBLIC "-//W3C//DTD SVG 1.1//EN" "http://www.w3.org/Graphics/SVG/1.1/DTD/svg11.dtd">
<svg width="100%" height="100%" viewBox="0 0 1274 840" version="1.1" xmlns="http://www.w3.org/2000/svg" xmlns:xlink="http://www.w3.org/1999/xlink" xml:space="preserve" style="fill-rule:evenodd;clip-rule:evenodd;stroke-linecap:round;stroke-linejoin:round;stroke-miterlimit:1.41421;">
    <g id="Hintergrund 4" transform="matrix(1,0,0,1,0,11)">
        <g id="Filter 3" transform="matrix(1,0,0,1,0,307)">
            <g transform="matrix(1.90203,0,0,0.868248,357.008,20.2209)">
                <path d="M147.206,43.301C147.206,35.139 144.182,28.513 140.456,28.513L9.751,28.513C6.025,28.513 3,35.139 3,43.301L3,154.758C3,162.92 6.025,169.546 9.751,169.546L140.456,169.546C144.182,169.546 147.206,162.92 147.206,154.758L147.206,43.301Z" style="fill:rgb(160,177,187);"/>
            </g>
            <g transform="matrix(0.565096,2.6527e-18,4.15704e-18,0.868588,707.38,20.2112)">
                <path d="M147.206,38.35C147.206,32.921 140.431,28.513 132.085,28.513L18.121,28.513C9.776,28.513 3,32.921 3,38.35L3,159.708C3,165.138 9.776,169.546 18.121,169.546L132.085,169.546C140.431,169.546 147.206,165.138 147.206,159.708L147.206,38.35Z" style="fill:rgb(160,177,187);"/>
            </g>
            <g transform="matrix(2.94669,1.38325e-17,4.15704e-18,0.868588,806.289,20.2343)">
                <path d="M147.206,43.301C147.206,35.139 145.253,28.513 142.847,28.513L7.359,28.513C4.953,28.513 3,35.139 3,43.301L3,154.758C3,162.92 4.953,169.546 7.359,169.546L142.847,169.546C145.253,169.546 147.206,162.92 147.206,154.758L147.206,43.301Z" style="fill:rgb(160,177,187);"/>
            </g>
            <g transform="matrix(0.950585,0,0,0.950585,32.9538,-10.331)">
                <circle cx="672.964" cy="127.812" r="46.557" style="fill:rgb(160,177,187);"/>
            </g>
            <g transform="matrix(1,0,0,1,0,50.51)">
                <rect x="137.164" y="50.203" width="61.807" height="27.706" style="fill:rgb(160,177,187);"/>
            </g>
            <g transform="matrix(1.18699,0,0,1.00551,177.869,-3.05083)">
                <path d="M147.206,43.301C147.206,35.139 141.593,28.513 134.679,28.513L15.528,28.513C8.613,28.513 3,35.139 3,43.301L3,154.758C3,162.92 8.613,169.546 15.528,169.546L134.679,169.546C141.593,169.546 147.206,162.92 147.206,154.758L147.206,43.301Z" style="fill:rgb(160,177,187);"/>
            </g>
            <g transform="matrix(1,0,0,1,190,48.36)">
                <rect x="137.164" y="50.203" width="61.807" height="27.706" style="fill:rgb(160,177,187);"/>
            </g>
            <g transform="matrix(1,0,0,1,630,48.36)">
                <rect x="137.164" y="50.203" width="61.807" height="27.706" style="fill:rgb(160,177,187);"/>
            </g>
            <g transform="matrix(1.01856,0,0,1.30362,-21.6449,-218.927)">
                <path d="M348.271,192.193L1166.12,192.193L1166.12,173.998" style="fill:none;stroke-width:10.26px;stroke:rgb(160,177,187);"/>
            </g>
        </g>
        <g id="Filter 2" transform="matrix(1,0,0,1,0,155)">
            <g transform="matrix(1.90203,0,0,0.868248,357.008,20.2209)">
                <path d="M147.206,43.301C147.206,35.139 144.182,28.513 140.456,28.513L9.751,28.513C6.025,28.513 3,35.139 3,43.301L3,154.758C3,162.92 6.025,169.546 9.751,169.546L140.456,169.546C144.182,169.546 147.206,162.92 147.206,154.758L147.206,43.301Z" style="fill:rgb(160,177,187);"/>
            </g>
            <g transform="matrix(0.565096,2.6527e-18,4.15704e-18,0.868588,707.38,20.2112)">
                <path d="M147.206,38.35C147.206,32.921 140.431,28.513 132.085,28.513L18.121,28.513C9.776,28.513 3,32.921 3,38.35L3,159.708C3,165.138 9.776,169.546 18.121,169.546L132.085,169.546C140.431,169.546 147.206,165.138 147.206,159.708L147.206,38.35Z" style="fill:rgb(160,177,187);"/>
            </g>
            <g transform="matrix(2.94669,1.38325e-17,4.15704e-18,0.868588,806.289,20.2343)">
                <path d="M147.206,43.301C147.206,35.139 145.253,28.513 142.847,28.513L7.359,28.513C4.953,28.513 3,35.139 3,43.301L3,154.758C3,162.92 4.953,169.546 7.359,169.546L142.847,169.546C145.253,169.546 147.206,162.92 147.206,154.758L147.206,43.301Z" style="fill:rgb(160,177,187);"/>
            </g>
            <g transform="matrix(0.950585,0,0,0.950585,32.9538,-10.331)">
                <circle cx="672.964" cy="127.812" r="46.557" style="fill:rgb(160,177,187);"/>
            </g>
            <g transform="matrix(1,0,0,1,0,50.51)">
                <rect x="137.164" y="50.203" width="61.807" height="27.706" style="fill:rgb(160,177,187);"/>
            </g>
            <g transform="matrix(1.18699,0,0,1.00551,177.869,-3.05083)">
                <path d="M147.206,43.301C147.206,35.139 141.593,28.513 134.679,28.513L15.528,28.513C8.613,28.513 3,35.139 3,43.301L3,154.758C3,162.92 8.613,169.546 15.528,169.546L134.679,169.546C141.593,169.546 147.206,162.92 147.206,154.758L147.206,43.301Z" style="fill:rgb(160,177,187);"/>
            </g>
            <g transform="matrix(1,0,0,1,190,48.36)">
                <rect x="137.164" y="50.203" width="61.807" height="27.706" style="fill:rgb(160,177,187);"/>
            </g>
            <g transform="matrix(1,0,0,1,630,48.36)">
                <rect x="137.164" y="50.203" width="61.807" height="27.706" style="fill:rgb(160,177,187);"/>
            </g>
            <g transform="matrix(1.01856,0,0,1.30362,-21.6449,-218.927)">
                <path d="M348.271,192.193L1166.12,192.193L1166.12,173.998" style="fill:none;stroke-width:10.26px;stroke:rgb(160,177,187);"/>
            </g>
        </g>
        <g id="Filter 1">
            <g transform="matrix(1.90203,0,0,0.868248,357.008,20.2209)">
                <path d="M147.206,43.301C147.206,35.139 144.182,28.513 140.456,28.513L9.751,28.513C6.025,28.513 3,35.139 3,43.301L3,154.758C3,162.92 6.025,169.546 9.751,169.546L140.456,169.546C144.182,169.546 147.206,162.92 147.206,154.758L147.206,43.301Z" style="fill:rgb(160,177,187);"/>
            </g>
            <g transform="matrix(0.565096,2.6527e-18,4.15704e-18,0.868588,707.38,20.2112)">
                <path d="M147.206,38.35C147.206,32.921 140.431,28.513 132.085,28.513L18.121,28.513C9.776,28.513 3,32.921 3,38.35L3,159.708C3,165.138 9.776,169.546 18.121,169.546L132.085,169.546C140.431,169.546 147.206,165.138 147.206,159.708L147.206,38.35Z" style="fill:rgb(160,177,187);"/>
            </g>
            <g transform="matrix(2.94669,1.38325e-17,4.15704e-18,0.868588,806.289,20.2343)">
                <path d="M147.206,43.301C147.206,35.139 145.253,28.513 142.847,28.513L7.359,28.513C4.953,28.513 3,35.139 3,43.301L3,154.758C3,162.92 4.953,169.546 7.359,169.546L142.847,169.546C145.253,169.546 147.206,162.92 147.206,154.758L147.206,43.301Z" style="fill:rgb(160,177,187);"/>
            </g>
            <g transform="matrix(0.950585,0,0,0.950585,32.9538,-10.331)">
                <circle cx="672.964" cy="127.812" r="46.557" style="fill:rgb(160,177,187);"/>
            </g>
            <g transform="matrix(1,0,0,1,0,50.51)">
                <rect x="137.164" y="50.203" width="61.807" height="27.706" style="fill:rgb(160,177,187);"/>
            </g>
            <g transform="matrix(1.18699,0,0,1.00551,177.869,-3.05083)">
                <path d="M147.206,43.301C147.206,35.139 141.593,28.513 134.679,28.513L15.528,28.513C8.613,28.513 3,35.139 3,43.301L3,154.758C3,162.92 8.613,169.546 15.528,169.546L134.679,169.546C141.593,169.546 147.206,162.92 147.206,154.758L147.206,43.301Z" style="fill:rgb(160,177,187);"/>
            </g>
            <g transform="matrix(1,0,0,1,190,48.36)">
                <rect x="137.164" y="50.203" width="61.807" height="27.706" style="fill:rgb(160,177,187);"/>
            </g>
            <g transform="matrix(1,0,0,1,630,48.36)">
                <rect x="137.164" y="50.203" width="61.807" height="27.706" style="fill:rgb(160,177,187);"/>
            </g>
        </g>
        <g transform="matrix(0.825603,0,0,3.38223,26.8227,-90.125)">
            <g id="Oscilators">
                <path d="M147.206,31.964C147.206,30.059 140.87,28.513 133.066,28.513L17.141,28.513C9.336,28.513 3,30.059 3,31.964L3,166.094C3,167.999 9.336,169.546 17.141,169.546L133.066,169.546C140.87,169.546 147.206,167.999 147.206,166.094L147.206,31.964Z" style="fill:rgb(160,177,187);"/>
            </g>
        </g>
    </g>
</svg>
