<?xml version="1.0" standalone="no"?>
<!DOCTYPE svg PUBLIC "-//W3C//DTD SVG 1.1//EN" "http://www.w3.org/Graphics/SVG/1.1/DTD/svg11.dtd">
<svg width="100%" height="100%" viewBox="0 0 1274 840" version="1.1" xmlns="http://www.w3.org/2000/svg" xmlns:xlink="http://www.w3.org/1999/xlink" xml:space="preserve" style="fill-rule:evenodd;clip-rule:evenodd;stroke-linejoin:round;stroke-miterlimit:1.41421;">
    <g transform="matrix(1,0,0,1,0,491)">
        <g id="Hintergrund 4">
            <g id="Master">
                <g transform="matrix(0.558599,0,0,1.00551,1160.29,-3.05083)">
                    <path d="M147.206,36.913C147.206,32.277 140.431,28.513 132.085,28.513L18.121,28.513C9.776,28.513 3,32.277 3,36.913L3,161.146C3,165.782 9.776,169.546 18.121,169.546L132.085,169.546C140.431,169.546 147.206,165.782 147.206,161.146L147.206,36.913Z" style="fill:rgb(251,78,79);"/>
                </g>
                <g transform="matrix(0.238348,0,0,1,1117.16,28.51)">
                    <rect x="137.164" y="50.203" width="61.807" height="27.706" style="fill:url(#_Linear1);"/>
                </g>
            </g>
        </g>
    </g>
    <defs>
        <linearGradient id="_Linear1" x1="0" y1="0" x2="1" y2="0" gradientUnits="userSpaceOnUse" gradientTransform="matrix(61.8069,0,0,27.7059,137.164,64.0555)"><stop offset="0%" style="stop-color:rgb(133,133,133);stop-opacity:1"/><stop offset="100%" style="stop-color:rgb(251,78,81);stop-opacity:1"/></linearGradient>
    </defs>
</svg>
