<?xml version="1.0" standalone="no"?>
<!DOCTYPE svg PUBLIC "-//W3C//DTD SVG 1.1//EN" "http://www.w3.org/Graphics/SVG/1.1/DTD/svg11.dtd">
<svg width="100%" height="100%" viewBox="0 0 1274 840" version="1.1" xmlns="http://www.w3.org/2000/svg" xmlns:xlink="http://www.w3.org/1999/xlink" xml:space="preserve" style="fill-rule:evenodd;clip-rule:evenodd;stroke-linejoin:round;stroke-miterlimit:1.41421;">
    <g transform="matrix(1,0,0,1,0,491)">
        <g id="Hintergrund 4">
            <g id="Master">
                <g transform="matrix(1.72269,0,0,1.14106,176.262,-26.0338)">
                    <path d="M147.206,43.301C147.206,35.139 142.817,28.513 137.411,28.513L12.796,28.513C7.389,28.513 3,35.139 3,43.301L3,154.758C3,162.92 7.389,169.546 12.796,169.546L137.411,169.546C142.817,169.546 147.206,162.92 147.206,154.758L147.206,43.301Z" style="fill:rgb(133,133,133);"/>
                </g>
                <g transform="matrix(3.33841,0,0,1.00551,430.611,-3.05083)">
                    <path d="M147.206,43.301C147.206,35.139 145.211,28.513 142.752,28.513L7.454,28.513C4.996,28.513 3,35.139 3,43.301L3,154.758C3,162.92 4.996,169.546 7.454,169.546L142.752,169.546C145.211,169.546 147.206,162.92 147.206,154.758L147.206,43.301Z" style="fill:rgb(133,133,133);"/>
                </g>
                <g transform="matrix(1.54626,0,0,1.00551,924.899,-3.05083)">
                    <path d="M147.206,43.301C147.206,35.139 142.897,28.513 137.59,28.513L12.617,28.513C7.309,28.513 3,35.139 3,43.301L3,154.758C3,162.92 7.309,169.546 12.617,169.546L137.59,169.546C142.897,169.546 147.206,162.92 147.206,154.758L147.206,43.301Z" style="fill:rgb(133,133,133);"/>
                </g>
                <g transform="matrix(1,0,0,1,270,28.51)">
                    <rect x="137.164" y="50.203" width="61.807" height="27.706" style="fill:rgb(133,133,133);"/>
                </g>
                <g transform="matrix(1,0,0,1,760,28.51)">
                    <rect x="137.164" y="50.203" width="61.807" height="27.706" style="fill:rgb(133,133,133);"/>
                </g>
            </g>
        </g>
    </g>
</svg>
