<?xml version="1.0" standalone="no"?>
<!DOCTYPE svg PUBLIC "-//W3C//DTD SVG 1.1//EN" "http://www.w3.org/Graphics/SVG/1.1/DTD/svg11.dtd">
<svg width="100%" height="100%" viewBox="0 0 1274 840" version="1.1" xmlns="http://www.w3.org/2000/svg" xmlns:xlink="http://www.w3.org/1999/xlink" xml:space="preserve" style="fill-rule:evenodd;clip-rule:evenodd;stroke-linejoin:round;stroke-miterlimit:1.41421;">
    <g id="Hintergrund 4" transform="matrix(1,0,0,1,0,11)">
        <g transform="matrix(1,0,0,1,0,290.654)">
            <g id="Filter 3">
                <path d="M672.964,81.255C698.659,81.255 719.521,102.116 719.521,127.812C719.521,153.507 698.659,174.369 672.964,174.369C647.268,174.369 626.407,153.507 626.407,127.812C626.407,102.116 647.268,81.255 672.964,81.255ZM672.964,85.445C696.347,85.445 715.331,104.429 715.331,127.812C715.331,151.195 696.347,170.179 672.964,170.179C649.581,170.179 630.597,151.195 630.597,127.812C630.597,104.429 649.581,85.445 672.964,85.445Z" style="fill:rgb(80,78,84);"/>
            </g>
        </g>
        <g transform="matrix(1,0,0,1,0,138.654)">
            <g id="Filter 2">
                <path d="M672.964,81.255C698.659,81.255 719.521,102.116 719.521,127.812C719.521,153.507 698.659,174.369 672.964,174.369C647.268,174.369 626.407,153.507 626.407,127.812C626.407,102.116 647.268,81.255 672.964,81.255ZM672.964,85.445C696.347,85.445 715.331,104.429 715.331,127.812C715.331,151.195 696.347,170.179 672.964,170.179C649.581,170.179 630.597,151.195 630.597,127.812C630.597,104.429 649.581,85.445 672.964,85.445Z" style="fill:rgb(80,78,84);"/>
            </g>
        </g>
        <g transform="matrix(1,0,0,1,0,-16.3462)">
            <g id="Filter 1">
                <path d="M672.964,81.255C698.659,81.255 719.521,102.116 719.521,127.812C719.521,153.507 698.659,174.369 672.964,174.369C647.268,174.369 626.407,153.507 626.407,127.812C626.407,102.116 647.268,81.255 672.964,81.255ZM672.964,85.531C696.299,85.531 715.245,104.476 715.245,127.812C715.245,151.147 696.299,170.093 672.964,170.093C649.628,170.093 630.683,151.147 630.683,127.812C630.683,104.476 649.628,85.531 672.964,85.531Z" style="fill:rgb(80,78,84);"/>
            </g>
        </g>
        <g id="Dreiecke">
            <g transform="matrix(-0.545354,1.75399e-16,-1.75399e-16,-0.545354,235.846,1065.4)">
                <path d="M152.616,686.251L168.068,717.155L137.164,717.155L152.616,686.251Z" style="fill:rgb(80,78,84);"/>
            </g>
            <g transform="matrix(-0.545354,1.75399e-16,-1.75399e-16,-0.545354,1122.85,1065.4)">
                <path d="M152.616,686.251L168.068,717.155L137.164,717.155L152.616,686.251Z" style="fill:rgb(80,78,84);"/>
            </g>
            <g transform="matrix(-0.545354,1.75399e-16,-1.75399e-16,-0.545354,1251.85,1065.4)">
                <path d="M152.616,686.251L168.068,717.155L137.164,717.155L152.616,686.251Z" style="fill:rgb(80,78,84);"/>
            </g>
            <g transform="matrix(0.512479,-1.02065e-16,1.02065e-16,0.512479,74.4035,458.562)">
                <path d="M152.616,686.251L168.068,717.155L137.164,717.155L152.616,686.251Z" style="fill:rgb(80,78,84);"/>
            </g>
            <g transform="matrix(0.512479,-1.02065e-16,1.02065e-16,0.512479,1089.4,458.562)">
                <path d="M152.616,686.251L168.068,717.155L137.164,717.155L152.616,686.251Z" style="fill:rgb(80,78,84);"/>
            </g>
            <g transform="matrix(0.512479,-1.02065e-16,1.02065e-16,0.512479,961.403,458.562)">
                <path d="M152.616,686.251L168.068,717.155L137.164,717.155L152.616,686.251Z" style="fill:rgb(80,78,84);"/>
            </g>
        </g>
    </g>
</svg>
